<svg id="svg" version="1.1" xmlns="http://www.w3.org/2000/svg" xmlns:xlink="http://www.w3.org/1999/xlink" width="400" height="400" viewBox="0, 0, 400,400"><g id="svgg"><path id="path0" d="M272.000 247.800 C 272.000 248.400,271.760 248.820,271.400 248.850 C 271.070 248.878,270.620 248.945,270.400 249.000 C 270.180 249.055,269.553 249.123,269.008 249.150 C 268.304 249.185,267.942 249.491,267.764 250.200 C 267.584 250.918,267.243 251.200,266.557 251.200 C 265.803 251.200,265.600 251.412,265.600 252.200 C 265.600 253.000,265.400 253.200,264.600 253.200 C 263.800 253.200,263.600 253.400,263.600 254.200 C 263.600 255.000,263.400 255.200,262.600 255.200 C 261.800 255.200,261.600 255.400,261.600 256.200 C 261.600 256.998,261.399 257.200,260.608 257.200 C 259.882 257.200,259.548 257.470,259.363 258.203 C 259.211 258.812,258.735 259.301,258.156 259.447 C 257.481 259.616,257.200 259.968,257.200 260.643 C 257.200 261.397,256.988 261.600,256.200 261.600 C 255.365 261.600,255.200 261.790,255.200 262.753 C 255.200 263.565,254.966 263.968,254.411 264.113 C 253.854 264.259,253.547 264.792,253.365 265.928 C 253.165 267.182,252.898 267.589,252.154 267.776 C 251.305 267.989,251.200 268.240,251.200 270.045 C 251.200 271.733,251.066 272.110,250.406 272.282 C 249.112 272.621,248.802 274.864,248.842 283.600 C 248.884 292.649,249.018 293.618,250.313 294.195 C 250.997 294.500,251.200 294.927,251.200 296.066 C 251.200 297.456,252.000 298.800,252.829 298.800 C 253.033 298.800,253.200 299.247,253.200 299.792 C 253.200 300.511,253.469 300.852,254.177 301.030 C 254.772 301.179,255.202 301.613,255.277 302.138 C 255.353 302.670,255.735 303.048,256.275 303.125 C 256.821 303.202,257.198 303.579,257.275 304.125 C 257.363 304.739,257.723 305.037,258.481 305.125 C 259.102 305.196,259.661 305.561,259.794 305.982 C 260.038 306.750,261.118 307.185,262.805 307.195 C 263.461 307.198,263.948 307.513,264.205 308.100 L 264.600 309.000 275.000 309.000 L 285.400 309.000 285.795 308.100 C 286.052 307.513,286.539 307.198,287.195 307.195 C 288.882 307.185,289.962 306.750,290.206 305.982 C 290.339 305.561,290.898 305.196,291.519 305.125 C 292.277 305.037,292.637 304.739,292.725 304.125 C 292.802 303.579,293.179 303.202,293.725 303.125 C 294.265 303.048,294.647 302.670,294.723 302.138 C 294.798 301.613,295.228 301.179,295.823 301.030 C 296.531 300.852,296.800 300.511,296.800 299.792 C 296.800 299.247,296.967 298.800,297.171 298.800 C 298.012 298.800,298.800 297.454,298.800 296.018 C 298.800 294.833,298.977 294.447,299.595 294.285 C 300.954 293.930,301.200 292.265,301.200 283.434 C 301.200 274.554,300.920 272.629,299.575 272.278 C 298.937 272.111,298.800 271.717,298.800 270.045 C 298.800 268.240,298.695 267.989,297.846 267.776 C 297.102 267.589,296.835 267.182,296.635 265.928 C 296.453 264.792,296.146 264.259,295.589 264.113 C 295.034 263.968,294.800 263.565,294.800 262.753 C 294.800 261.790,294.635 261.600,293.800 261.600 C 293.012 261.600,292.800 261.397,292.800 260.643 C 292.800 259.964,292.518 259.616,291.828 259.443 C 291.221 259.290,290.807 258.860,290.728 258.299 C 290.636 257.656,290.287 257.364,289.500 257.273 C 288.636 257.174,288.400 256.938,288.400 256.173 C 288.400 255.402,288.193 255.200,287.400 255.200 C 286.600 255.200,286.400 255.000,286.400 254.200 C 286.400 253.400,286.200 253.200,285.400 253.200 C 284.600 253.200,284.400 253.000,284.400 252.200 C 284.400 251.412,284.197 251.200,283.443 251.200 C 282.757 251.200,282.416 250.918,282.236 250.200 C 281.985 249.202,281.783 249.133,278.900 249.066 C 278.186 249.049,278.000 248.813,278.000 247.922 L 278.000 246.800 275.000 246.800 C 272.067 246.800,272.000 246.822,272.000 247.800 M196.800 322.978 C 196.800 323.861,196.615 323.968,194.900 324.078 C 193.279 324.182,192.981 324.332,192.872 325.100 C 192.780 325.751,192.476 326.000,191.772 326.000 C 191.009 326.000,190.800 326.209,190.800 326.973 C 190.800 327.738,190.564 327.974,189.700 328.073 C 188.836 328.173,188.573 328.436,188.473 329.300 C 188.374 330.164,188.138 330.400,187.373 330.400 C 186.602 330.400,186.400 330.607,186.400 331.400 C 186.400 332.200,186.200 332.400,185.400 332.400 C 184.600 332.400,184.400 332.600,184.400 333.400 C 184.400 334.200,184.200 334.400,183.400 334.400 C 182.600 334.400,182.400 334.600,182.400 335.400 C 182.400 336.200,182.200 336.400,181.400 336.400 C 180.575 336.400,180.400 336.593,180.400 337.505 C 180.400 338.268,180.121 338.733,179.500 339.005 C 178.888 339.273,178.480 339.939,178.227 341.082 C 177.951 342.325,177.638 342.794,177.027 342.882 C 176.331 342.981,176.181 343.329,176.080 345.079 C 175.985 346.714,175.796 347.211,175.194 347.402 C 173.527 347.931,173.441 367.858,175.100 369.200 C 175.621 369.622,176.000 370.372,176.000 370.982 C 176.000 371.562,176.427 372.463,176.948 372.985 C 177.470 373.506,178.013 374.398,178.156 374.966 C 178.348 375.730,178.674 376.000,179.408 376.000 C 180.199 376.000,180.400 376.202,180.400 377.000 C 180.400 377.800,180.600 378.000,181.400 378.000 C 182.203 378.000,182.400 378.199,182.400 379.010 C 182.400 379.812,182.647 380.069,183.600 380.260 C 184.260 380.392,184.800 380.719,184.800 380.986 C 184.800 381.561,186.495 382.400,187.655 382.400 C 188.104 382.400,188.800 382.805,189.201 383.300 C 189.921 384.190,190.039 384.200,200.000 384.200 C 209.961 384.200,210.079 384.190,210.799 383.300 C 211.200 382.805,211.896 382.400,212.345 382.400 C 213.505 382.400,215.200 381.561,215.200 380.986 C 215.200 380.719,215.740 380.392,216.400 380.260 C 217.353 380.069,217.600 379.812,217.600 379.010 C 217.600 378.199,217.797 378.000,218.600 378.000 C 219.400 378.000,219.600 377.800,219.600 377.000 C 219.600 376.202,219.801 376.000,220.592 376.000 C 221.326 376.000,221.652 375.730,221.844 374.966 C 221.987 374.398,222.530 373.506,223.052 372.985 C 223.573 372.463,224.000 371.562,224.000 370.982 C 224.000 370.372,224.379 369.622,224.900 369.200 C 226.559 367.858,226.473 347.931,224.806 347.402 C 224.204 347.211,224.015 346.714,223.920 345.079 C 223.819 343.329,223.669 342.981,222.973 342.882 C 222.362 342.794,222.049 342.325,221.773 341.082 C 221.520 339.939,221.112 339.273,220.500 339.005 C 219.879 338.733,219.600 338.268,219.600 337.505 C 219.600 336.593,219.425 336.400,218.600 336.400 C 217.800 336.400,217.600 336.200,217.600 335.400 C 217.600 334.600,217.400 334.400,216.600 334.400 C 215.800 334.400,215.600 334.200,215.600 333.400 C 215.600 332.600,215.400 332.400,214.600 332.400 C 213.800 332.400,213.600 332.200,213.600 331.400 C 213.600 330.607,213.398 330.400,212.627 330.400 C 211.862 330.400,211.626 330.164,211.527 329.300 C 211.427 328.436,211.164 328.173,210.300 328.073 C 209.436 327.974,209.200 327.738,209.200 326.973 C 209.200 326.209,208.991 326.000,208.228 326.000 C 207.524 326.000,207.220 325.751,207.128 325.100 C 207.019 324.332,206.721 324.182,205.100 324.078 C 203.385 323.968,203.200 323.861,203.200 322.978 C 203.200 322.022,203.128 322.000,200.000 322.000 C 196.872 322.000,196.800 322.022,196.800 322.978 " stroke="none" fill="#05e4fb" fill-rule="evenodd"></path><path id="path1" d="M123.027 33.365 C 123.276 34.357,121.818 34.602,116.700 34.425 C 116.082 34.404,115.600 34.601,115.600 34.874 C 115.600 35.252,115.493 35.253,115.120 34.880 C 114.856 34.616,114.451 34.403,114.220 34.406 C 113.989 34.409,114.070 34.587,114.400 34.800 C 114.933 35.145,114.933 35.191,114.400 35.219 C 114.059 35.237,114.231 35.455,114.800 35.724 C 115.669 36.135,115.341 36.213,112.300 36.314 C 108.857 36.429,108.800 36.448,108.800 37.439 C 108.800 38.009,108.626 38.340,108.400 38.200 C 108.180 38.064,108.000 38.145,108.000 38.379 C 108.000 38.665,107.078 38.720,105.200 38.545 C 103.141 38.354,102.400 38.412,102.400 38.766 C 102.400 39.031,102.580 39.136,102.800 39.000 C 103.020 38.864,103.200 38.943,103.200 39.176 C 103.200 39.409,102.750 39.600,102.200 39.600 C 101.650 39.600,101.200 39.799,101.200 40.043 C 101.200 40.299,101.494 40.374,101.900 40.219 C 102.360 40.044,102.463 40.087,102.200 40.345 C 101.980 40.560,100.720 40.796,99.400 40.868 C 97.200 40.989,97.004 41.075,97.048 41.900 C 97.092 42.735,95.226 43.183,93.100 42.847 C 92.935 42.821,92.821 42.935,92.847 43.100 C 93.046 44.359,92.723 44.800,91.600 44.800 C 90.940 44.800,90.400 44.980,90.400 45.200 C 90.400 45.420,90.019 45.600,89.553 45.600 C 88.926 45.600,88.757 45.792,88.900 46.340 C 89.062 46.959,88.886 47.064,87.826 46.980 C 86.692 46.890,86.561 46.990,86.579 47.939 C 86.598 48.882,86.444 49.004,85.200 49.039 C 82.993 49.102,82.901 49.143,82.636 50.200 C 82.486 50.798,82.099 51.200,81.672 51.200 C 80.737 51.200,80.008 51.955,80.274 52.649 C 80.482 53.190,79.983 53.336,78.200 53.256 C 77.760 53.237,77.625 53.321,77.900 53.444 C 78.606 53.759,78.524 55.200,77.800 55.200 C 77.470 55.200,77.186 54.885,77.168 54.500 C 77.149 54.078,77.056 53.999,76.934 54.302 C 76.823 54.579,76.567 54.703,76.366 54.579 C 76.165 54.455,76.000 54.628,76.000 54.964 C 76.000 55.300,75.775 55.492,75.500 55.392 C 74.556 55.046,73.782 55.856,74.375 56.570 C 74.830 57.118,74.748 57.206,73.749 57.246 C 73.073 57.274,72.888 57.368,73.300 57.476 C 75.839 58.139,73.435 59.952,70.383 59.675 C 70.264 59.664,70.138 60.023,70.104 60.473 C 70.028 61.484,69.932 61.582,68.800 61.800 C 67.527 62.045,67.152 63.051,67.788 64.517 C 68.213 65.497,67.859 65.743,65.888 65.839 C 63.581 65.951,63.600 65.946,63.600 66.424 C 63.600 66.657,63.780 66.736,64.000 66.600 C 64.220 66.464,64.400 66.533,64.400 66.753 C 64.400 66.973,64.220 67.264,64.000 67.400 C 63.780 67.536,63.600 68.180,63.600 68.831 C 63.600 69.876,63.482 69.994,62.600 69.834 C 61.724 69.675,61.600 69.795,61.600 70.799 C 61.600 71.664,61.390 71.976,60.741 72.072 C 60.033 72.178,59.547 72.678,58.937 73.930 C 58.902 74.002,58.542 74.109,58.137 74.169 C 57.533 74.258,57.403 74.633,57.416 76.239 C 57.434 78.309,56.730 79.126,55.664 78.272 C 55.264 77.951,55.150 77.989,55.212 78.422 C 55.436 79.984,55.181 80.750,54.482 80.616 C 54.000 80.523,53.745 80.738,53.705 81.269 C 53.653 81.953,53.734 81.988,54.299 81.530 C 54.682 81.220,54.838 81.193,54.674 81.466 C 54.521 81.722,54.621 82.023,54.898 82.134 C 55.174 82.246,54.905 82.351,54.300 82.368 C 53.364 82.395,53.200 82.570,53.200 83.545 C 53.200 84.522,53.056 84.674,52.223 84.583 C 51.447 84.498,51.253 84.654,51.279 85.338 C 51.376 87.803,51.198 88.314,50.153 88.576 C 49.577 88.721,49.215 88.949,49.349 89.083 C 49.483 89.217,49.402 89.557,49.169 89.838 C 48.935 90.119,48.831 90.901,48.937 91.575 C 49.082 92.492,48.976 92.800,48.518 92.800 C 48.084 92.800,47.972 93.060,48.133 93.700 C 48.340 94.519,48.313 94.537,47.836 93.900 C 47.153 92.988,46.836 93.013,46.908 93.972 C 46.940 94.397,47.127 94.645,47.323 94.524 C 47.519 94.403,47.481 94.674,47.239 95.127 C 46.996 95.580,46.861 96.868,46.939 97.989 C 47.098 100.286,46.855 100.650,45.759 99.755 C 45.065 99.188,45.062 99.154,45.721 99.363 C 46.163 99.503,46.342 99.430,46.184 99.174 C 46.043 98.945,45.718 98.828,45.463 98.914 C 44.989 99.073,44.966 99.279,44.861 104.343 C 44.800 107.272,44.795 107.285,43.800 107.036 C 42.774 106.778,42.462 108.859,42.793 113.753 C 42.863 114.782,42.763 114.886,41.874 114.716 L 40.876 114.525 40.820 130.901 C 40.780 142.859,40.891 147.427,41.231 147.838 C 41.488 148.147,41.532 148.400,41.328 148.400 C 41.125 148.400,40.943 149.075,40.924 149.900 C 40.896 151.138,40.949 151.244,41.230 150.507 C 41.777 149.067,42.867 149.799,42.788 151.553 C 42.538 157.074,42.798 160.100,43.475 159.549 C 44.065 159.069,44.117 159.087,43.892 159.687 C 43.751 160.065,43.835 160.498,44.079 160.649 C 44.348 160.815,44.411 160.741,44.238 160.462 C 44.081 160.208,44.143 160.000,44.376 160.000 C 44.609 160.000,44.812 160.225,44.827 160.500 C 44.842 160.775,44.900 161.853,44.957 162.897 C 45.060 164.790,45.600 166.109,45.600 164.467 L 45.600 163.600 46.440 164.440 C 47.210 165.210,47.259 165.570,47.023 168.740 C 46.882 170.643,46.915 171.982,47.097 171.715 C 47.832 170.639,49.286 171.614,49.116 173.069 C 49.003 174.037,49.101 174.370,49.458 174.233 C 49.766 174.115,49.874 174.263,49.738 174.618 C 49.616 174.936,49.310 175.072,49.058 174.921 C 48.806 174.770,48.870 174.986,49.200 175.400 C 49.550 175.839,49.591 176.028,49.300 175.853 C 49.025 175.688,48.800 175.743,48.800 175.976 C 48.800 176.209,48.980 176.423,49.200 176.450 C 49.995 176.549,50.208 176.617,50.700 176.930 C 50.975 177.104,51.200 177.554,51.200 177.929 C 51.200 178.304,51.605 178.788,52.100 179.005 C 52.843 179.331,53.010 179.741,53.057 181.350 C 53.089 182.422,53.286 183.412,53.497 183.550 C 53.958 183.852,53.998 185.200,53.546 185.200 C 53.369 185.200,53.329 185.470,53.455 185.800 C 53.582 186.130,54.026 186.400,54.443 186.400 C 55.114 186.400,55.378 186.814,55.255 187.676 C 55.198 188.079,56.725 188.494,57.196 188.202 C 57.418 188.065,57.600 188.255,57.600 188.625 C 57.600 189.155,57.718 189.200,58.158 188.835 C 58.601 188.467,58.704 188.519,58.658 189.086 C 58.626 189.479,58.825 189.755,59.100 189.700 C 59.434 189.633,59.600 190.138,59.600 191.224 C 59.600 192.212,59.442 192.750,59.197 192.598 C 58.964 192.454,58.991 192.781,59.261 193.375 C 59.518 193.939,59.880 194.423,60.064 194.450 C 60.249 194.478,60.617 194.523,60.882 194.550 C 61.147 194.578,61.467 195.035,61.592 195.568 C 61.758 196.270,62.147 196.578,63.010 196.691 C 64.895 196.938,67.019 200.200,65.295 200.200 C 65.060 200.200,64.717 200.364,64.533 200.564 C 64.341 200.774,64.402 200.813,64.675 200.656 C 64.937 200.506,65.336 200.702,65.563 201.092 C 65.790 201.481,65.981 201.597,65.988 201.350 C 66.006 200.689,68.025 200.801,68.285 201.477 C 68.407 201.794,68.272 202.492,67.986 203.026 C 67.414 204.094,67.744 204.816,68.471 204.089 C 68.815 203.745,69.187 203.769,69.965 204.184 C 70.534 204.488,71.291 204.827,71.647 204.936 C 72.712 205.263,72.908 207.278,71.846 206.991 C 71.121 206.795,71.097 206.823,71.676 207.187 C 72.048 207.421,72.285 207.958,72.204 208.379 C 72.097 208.934,72.269 209.130,72.828 209.088 C 73.253 209.056,73.600 208.887,73.600 208.711 C 73.600 208.536,73.915 208.562,74.300 208.767 C 74.685 208.973,75.334 209.246,75.742 209.374 C 76.181 209.512,76.393 209.841,76.262 210.183 C 76.115 210.566,76.234 210.685,76.618 210.538 C 76.936 210.416,77.088 210.142,76.956 209.929 C 76.824 209.715,77.083 209.770,77.532 210.051 C 77.981 210.331,78.282 210.668,78.201 210.799 C 78.119 210.931,78.208 211.290,78.398 211.598 C 78.595 211.915,78.588 212.449,78.383 212.832 C 78.135 213.296,78.175 213.502,78.511 213.491 C 80.297 213.429,81.355 213.641,80.853 213.958 C 80.420 214.233,80.406 214.460,80.784 215.052 C 81.191 215.692,81.229 215.698,81.043 215.100 C 80.789 214.283,80.956 214.241,82.075 214.840 C 82.672 215.160,82.822 215.160,82.625 214.840 C 82.259 214.249,82.918 214.278,83.520 214.880 C 83.784 215.144,84.000 215.213,84.000 215.034 C 84.000 214.855,84.447 215.001,84.994 215.360 C 85.920 215.966,86.040 215.962,86.730 215.306 C 87.137 214.918,87.805 214.406,88.215 214.169 C 88.624 213.933,89.093 213.237,89.257 212.624 C 89.421 212.011,89.840 211.215,90.189 210.855 C 91.128 209.885,93.184 206.668,93.193 206.155 C 93.199 205.755,93.824 204.848,96.354 201.566 C 96.793 200.997,97.275 200.042,97.425 199.443 C 97.575 198.844,98.126 198.074,98.649 197.731 C 99.172 197.388,99.600 196.793,99.600 196.409 C 99.600 196.025,100.140 195.031,100.800 194.200 C 101.460 193.369,102.000 192.467,102.000 192.194 C 102.000 191.921,102.285 191.461,102.634 191.172 C 102.983 190.882,103.543 189.960,103.878 189.123 C 104.213 188.285,104.657 187.600,104.864 187.600 C 105.071 187.600,105.499 186.982,105.814 186.227 C 106.130 185.472,106.591 184.729,106.839 184.576 C 107.088 184.422,107.630 183.529,108.045 182.591 C 108.460 181.653,109.070 180.782,109.400 180.655 C 109.730 180.529,110.000 180.147,110.000 179.808 C 110.000 179.182,112.960 174.595,113.633 174.180 C 113.835 174.055,114.000 173.628,114.000 173.231 C 114.000 172.835,114.495 171.867,115.100 171.082 C 115.705 170.296,116.740 168.724,117.400 167.588 C 118.060 166.452,118.967 165.045,119.416 164.461 C 119.864 163.878,120.448 162.898,120.714 162.285 C 120.979 161.672,121.380 160.952,121.605 160.685 C 122.579 159.530,124.009 157.280,124.711 155.800 C 125.128 154.920,125.769 153.953,126.135 153.651 C 126.501 153.349,126.800 152.882,126.800 152.613 C 126.800 152.344,127.153 151.804,127.585 151.414 C 128.017 151.023,128.571 150.094,128.817 149.349 C 129.063 148.603,129.610 147.809,130.032 147.583 C 130.454 147.357,130.800 146.843,130.800 146.441 C 130.800 146.039,131.340 145.031,132.000 144.200 C 132.660 143.369,133.200 142.439,133.200 142.132 C 133.200 141.826,133.470 141.471,133.800 141.345 C 134.130 141.218,134.769 140.369,135.220 139.457 C 136.471 136.927,137.340 135.457,138.313 134.219 C 138.801 133.599,139.200 132.878,139.200 132.616 C 139.200 132.354,139.650 131.717,140.200 131.200 C 140.750 130.683,141.200 130.058,141.200 129.810 C 141.200 129.562,141.965 128.220,142.900 126.829 C 143.835 125.437,145.003 123.511,145.496 122.549 C 145.989 121.587,146.538 120.800,146.716 120.800 C 146.894 120.800,147.261 120.187,147.532 119.438 C 148.151 117.727,149.172 117.278,150.032 118.340 C 150.734 119.207,151.200 128.505,151.200 141.641 C 151.200 145.684,151.359 148.451,151.600 148.600 C 151.820 148.736,152.000 149.986,152.000 151.378 C 152.000 153.635,152.108 153.979,153.000 154.563 L 154.000 155.218 154.000 177.209 L 154.000 199.200 160.100 199.229 C 177.662 199.312,199.752 199.647,200.055 199.834 C 200.751 200.264,200.434 202.466,199.646 202.672 C 199.132 202.807,198.811 203.369,198.641 204.434 C 198.492 205.363,198.068 206.201,197.595 206.496 C 197.148 206.775,196.798 207.432,196.795 207.996 C 196.785 209.668,196.352 210.761,195.604 210.999 C 195.214 211.122,194.788 211.758,194.658 212.412 C 194.517 213.116,194.168 213.600,193.800 213.600 C 193.036 213.600,192.375 215.218,192.673 216.357 C 192.820 216.921,193.213 217.200,193.860 217.200 C 196.920 217.200,199.085 223.335,196.600 224.963 C 195.468 225.705,195.038 230.386,196.100 230.412 C 196.375 230.419,198.850 230.608,201.600 230.833 C 214.336 231.872,223.955 232.109,259.000 232.245 L 296.600 232.391 296.497 233.240 C 296.422 233.853,296.561 234.024,296.997 233.857 C 297.329 233.729,297.600 233.769,297.600 233.944 C 297.600 234.120,298.776 234.286,300.213 234.314 C 302.022 234.349,302.742 234.229,302.553 233.924 C 302.373 233.633,302.617 233.548,303.274 233.674 C 303.914 233.796,304.267 233.681,304.267 233.349 C 304.267 233.067,304.129 232.920,303.961 233.024 C 303.793 233.128,303.524 232.985,303.364 232.707 C 303.203 232.428,303.219 232.333,303.399 232.497 C 303.579 232.660,303.937 232.618,304.195 232.404 C 304.452 232.191,305.009 231.962,305.431 231.896 C 305.854 231.831,306.425 231.636,306.700 231.465 C 306.983 231.288,307.200 231.339,307.200 231.583 C 307.200 231.819,307.695 231.980,308.300 231.941 C 308.905 231.901,310.000 232.006,310.734 232.173 C 311.818 232.421,312.214 232.321,312.849 231.639 C 313.279 231.178,313.434 230.800,313.192 230.800 C 312.950 230.800,312.857 230.632,312.983 230.427 C 313.110 230.222,313.706 230.063,314.307 230.073 C 314.908 230.084,315.580 230.050,315.800 229.999 C 316.020 229.947,316.290 229.940,316.400 229.983 C 317.290 230.330,318.199 230.258,318.652 229.805 C 319.072 229.386,319.082 229.224,318.696 229.083 C 318.383 228.968,318.679 228.465,319.499 227.716 C 320.213 227.064,320.703 226.437,320.588 226.321 C 320.473 226.206,321.467 225.806,322.798 225.432 C 324.129 225.059,325.122 224.597,325.003 224.406 C 324.781 224.046,326.322 223.365,326.959 223.540 C 328.636 224.002,330.421 223.908,329.984 223.380 C 329.723 223.066,329.352 222.906,329.159 223.025 C 328.967 223.144,328.916 222.963,329.046 222.623 C 329.177 222.283,329.432 222.096,329.613 222.208 C 329.794 222.320,330.057 222.049,330.198 221.606 C 330.339 221.163,330.622 220.800,330.827 220.800 C 331.032 220.800,331.200 220.538,331.200 220.218 C 331.200 219.862,331.782 219.528,332.700 219.357 C 333.525 219.204,334.437 218.743,334.727 218.332 C 335.017 217.922,335.427 217.693,335.637 217.823 C 335.848 217.953,335.994 217.911,335.963 217.730 C 335.584 215.550,335.931 215.190,338.300 215.296 L 340.600 215.400 340.482 213.300 C 340.383 211.521,340.475 211.191,341.082 211.139 C 341.477 211.106,342.070 211.049,342.400 211.014 C 342.730 210.979,343.239 211.130,343.530 211.349 C 344.255 211.895,344.867 210.873,344.371 209.946 C 344.138 209.510,344.141 209.160,344.381 209.011 C 344.592 208.881,344.664 208.511,344.541 208.190 C 344.316 207.603,345.884 206.708,346.500 207.071 C 346.776 207.233,346.977 206.262,346.834 205.459 C 346.680 204.599,347.290 203.498,347.622 204.036 C 348.140 204.873,348.498 204.206,348.709 202.009 C 348.833 200.714,349.089 200.000,349.427 200.000 C 349.716 200.000,350.081 199.792,350.238 199.538 C 350.415 199.252,350.348 199.185,350.062 199.362 C 349.808 199.519,349.600 199.476,349.600 199.266 C 349.600 199.057,349.856 198.787,350.169 198.667 C 350.482 198.547,350.797 198.033,350.869 197.524 C 350.965 196.850,351.302 196.565,352.118 196.472 C 353.017 196.368,353.188 196.193,352.991 195.572 C 352.848 195.121,352.934 194.800,353.197 194.800 C 353.444 194.800,353.548 194.639,353.426 194.442 C 353.182 194.048,354.299 193.491,354.761 193.776 C 354.920 193.874,355.027 193.215,354.999 192.311 C 354.902 189.209,355.317 187.795,356.309 187.848 C 357.108 187.891,357.735 181.786,357.247 178.700 C 357.175 178.241,358.184 178.344,358.687 178.847 C 359.017 179.177,359.147 176.128,359.182 167.258 L 359.230 155.223 358.215 154.968 C 357.220 154.718,357.199 154.637,357.157 150.857 C 357.097 145.354,357.106 145.405,356.200 145.402 C 355.498 145.400,355.368 145.046,355.140 142.494 C 354.832 139.038,354.625 138.400,353.813 138.400 C 353.294 138.400,352.990 137.469,353.140 136.338 C 353.159 136.194,352.901 135.971,352.567 135.843 C 352.221 135.710,352.064 135.780,352.203 136.005 C 352.337 136.222,352.206 136.400,351.911 136.400 C 351.374 136.400,351.109 135.338,351.038 132.900 C 351.008 131.877,350.829 131.601,350.200 131.606 C 349.537 131.611,349.503 131.679,350.000 132.000 C 350.506 132.327,350.483 132.389,349.857 132.394 C 349.256 132.399,349.163 132.201,349.373 131.366 C 349.541 130.696,349.486 130.423,349.216 130.590 C 348.963 130.747,348.800 130.369,348.800 129.624 C 348.800 128.476,348.367 128.153,347.100 128.353 C 346.935 128.379,346.800 127.691,346.800 126.824 C 346.800 125.957,346.592 125.119,346.338 124.962 C 346.052 124.785,345.985 124.852,346.162 125.138 C 346.342 125.430,346.144 125.600,345.624 125.600 C 344.538 125.600,344.576 125.040,345.700 124.451 L 346.600 123.979 345.700 124.152 C 345.097 124.268,344.800 124.131,344.800 123.739 C 344.800 123.415,344.604 123.274,344.360 123.425 C 344.069 123.605,344.082 123.393,344.400 122.800 C 344.705 122.230,344.722 122.001,344.448 122.170 C 343.687 122.641,342.452 121.686,342.683 120.805 C 342.853 120.155,342.699 120.000,341.878 120.000 C 341.076 120.000,340.808 119.749,340.600 118.800 C 340.379 117.795,340.189 117.638,339.424 117.830 C 338.649 118.024,338.474 117.868,338.257 116.786 C 338.088 115.939,337.821 115.583,337.460 115.722 C 337.162 115.836,336.596 115.555,336.204 115.096 C 335.503 114.277,335.480 114.276,334.914 115.031 C 334.505 115.577,334.361 115.626,334.416 115.200 C 334.562 114.088,334.403 113.600,333.895 113.600 C 333.617 113.600,333.052 113.150,332.639 112.600 C 332.205 112.023,331.485 111.600,330.934 111.600 C 330.194 111.600,329.926 111.331,329.740 110.400 C 329.557 109.486,329.282 109.200,328.583 109.200 C 328.079 109.200,327.576 108.975,327.465 108.700 C 327.342 108.397,327.251 108.470,327.232 108.887 C 327.183 109.952,326.000 109.275,326.000 108.182 C 326.000 107.341,325.864 107.272,324.600 107.477 C 323.530 107.651,323.200 107.566,323.200 107.114 C 323.200 106.212,321.862 105.200,320.669 105.200 C 319.698 105.200,319.409 104.788,319.527 103.577 C 319.571 103.128,316.317 103.178,315.025 103.645 C 313.937 104.039,313.417 104.014,312.148 103.510 C 311.297 103.172,309.430 102.762,308.000 102.600 C 306.570 102.438,304.770 102.071,304.000 101.785 C 300.732 100.570,296.097 100.400,266.233 100.400 C 234.016 100.400,235.633 100.504,234.994 98.400 C 234.827 97.850,234.375 96.997,233.990 96.503 C 233.605 96.010,233.165 94.930,233.013 94.103 C 232.860 93.277,232.412 92.240,232.017 91.800 C 231.622 91.360,231.069 90.285,230.789 89.411 C 230.509 88.537,230.037 87.580,229.740 87.283 C 229.444 86.987,229.084 86.262,228.940 85.672 C 228.796 85.082,228.256 84.091,227.739 83.469 C 227.222 82.847,226.694 81.915,226.564 81.398 C 226.434 80.881,226.092 80.367,225.804 80.257 C 225.516 80.146,225.068 79.413,224.809 78.628 C 224.550 77.843,224.190 77.200,224.008 77.200 C 223.827 77.200,223.316 76.585,222.872 75.833 C 222.429 75.081,221.773 74.136,221.416 73.733 C 221.058 73.330,219.677 71.650,218.346 70.000 C 213.817 64.385,203.106 54.433,198.760 51.800 C 198.033 51.360,197.096 50.794,196.678 50.542 C 195.485 49.825,192.416 46.698,192.605 46.393 C 192.922 45.880,191.805 44.837,190.800 44.708 C 189.538 44.546,188.798 44.089,188.806 43.476 C 188.810 43.190,188.967 43.239,189.200 43.600 C 189.531 44.113,189.589 44.098,189.594 43.500 C 189.599 42.949,189.259 42.800,188.000 42.800 C 186.607 42.800,186.400 42.683,186.400 41.900 C 186.400 41.110,186.171 40.987,184.519 40.892 C 183.484 40.833,182.497 40.563,182.325 40.292 C 182.084 39.912,182.011 39.920,182.006 40.327 C 181.994 41.338,179.869 40.707,179.796 39.670 C 179.744 38.950,179.895 38.784,180.465 38.933 C 180.882 39.042,181.097 38.956,180.960 38.735 C 180.827 38.520,179.710 38.402,178.478 38.472 C 176.373 38.592,176.223 38.540,176.001 37.601 C 175.871 37.052,175.502 36.584,175.182 36.562 C 174.862 36.540,173.406 36.494,171.947 36.461 C 169.377 36.402,167.796 35.300,169.342 34.645 C 169.594 34.538,169.440 34.468,169.000 34.489 C 164.599 34.698,160.400 34.350,160.400 33.776 C 160.400 33.433,160.220 33.264,160.000 33.400 C 159.780 33.536,159.600 33.541,159.600 33.411 C 159.600 33.281,160.005 33.016,160.500 32.823 C 161.039 32.612,154.035 32.459,143.035 32.441 C 128.996 32.417,124.526 32.526,124.058 32.905 C 123.571 33.299,123.507 33.298,123.747 32.900 C 123.936 32.584,123.815 32.400,123.416 32.400 C 122.949 32.400,122.848 32.650,123.027 33.365 M85.226 47.769 C 84.951 48.100,84.914 48.423,85.135 48.560 C 85.341 48.687,85.718 48.539,85.974 48.231 C 86.249 47.900,86.286 47.577,86.065 47.440 C 85.859 47.313,85.482 47.461,85.226 47.769 M56.026 76.969 C 55.751 77.300,55.714 77.623,55.935 77.760 C 56.141 77.887,56.518 77.739,56.774 77.431 C 57.049 77.100,57.086 76.777,56.865 76.640 C 56.659 76.513,56.282 76.661,56.026 76.969 M49.200 177.435 C 49.200 177.746,49.380 178.000,49.600 178.000 C 49.820 178.000,50.000 177.809,50.000 177.576 C 50.000 177.343,50.225 177.282,50.500 177.441 C 50.775 177.599,50.860 177.574,50.688 177.386 C 50.161 176.807,49.200 176.839,49.200 177.435 M57.200 191.284 C 57.200 191.624,57.499 192.149,57.865 192.451 C 58.474 192.953,58.487 192.915,58.011 192.000 C 57.314 190.659,57.200 190.558,57.200 191.284 M68.800 204.613 C 68.800 204.936,69.070 205.200,69.400 205.200 C 69.730 205.200,70.000 205.039,70.000 204.843 C 70.000 204.646,69.730 204.382,69.400 204.255 C 69.035 204.115,68.800 204.255,68.800 204.613 M344.030 210.510 C 343.981 210.988,343.432 210.896,343.260 210.380 C 343.172 210.116,343.316 209.972,343.580 210.060 C 343.844 210.148,344.047 210.350,344.030 210.510 M76.400 211.200 C 75.964 211.482,75.943 211.589,76.324 211.594 C 76.617 211.597,76.722 211.803,76.562 212.062 C 76.384 212.350,76.452 212.415,76.745 212.234 C 77.002 212.075,77.119 211.793,77.004 211.607 C 76.889 211.421,77.021 211.177,77.298 211.066 C 77.574 210.954,77.620 210.852,77.400 210.838 C 77.180 210.824,76.730 210.987,76.400 211.200 M66.426 245.769 C 66.151 246.100,66.114 246.423,66.335 246.560 C 66.541 246.687,66.918 246.539,67.174 246.231 C 67.449 245.900,67.486 245.577,67.265 245.440 C 67.059 245.313,66.682 245.461,66.426 245.769 " stroke="none" fill="#eaeaea" fill-rule="evenodd"></path><path id="path2" d="M234.580 16.033 C 234.455 16.235,234.543 16.400,234.776 16.400 C 235.009 16.400,235.200 16.591,235.200 16.824 C 235.200 17.057,235.020 17.136,234.800 17.000 C 234.580 16.864,234.400 16.955,234.400 17.202 C 234.400 17.448,234.085 17.618,233.700 17.579 C 230.054 17.208,228.400 17.589,228.400 18.800 C 228.400 19.872,228.269 20.000,227.176 20.000 C 226.389 20.000,226.050 19.843,226.225 19.560 C 226.422 19.240,226.272 19.240,225.675 19.560 C 225.222 19.802,224.211 20.000,223.426 20.000 C 222.172 20.000,222.000 20.120,222.000 21.000 C 222.000 21.942,221.876 22.000,219.855 22.000 C 217.784 22.000,217.717 22.034,217.902 23.000 C 218.084 23.949,218.000 24.000,216.261 24.000 C 214.504 24.000,213.137 25.004,213.881 25.747 C 214.020 25.886,213.563 26.000,212.867 26.000 C 211.782 26.000,211.600 26.144,211.600 27.000 C 211.600 27.997,210.935 28.238,208.761 28.031 C 207.990 27.958,207.128 28.908,207.286 29.658 C 207.356 29.989,206.972 30.249,206.300 30.327 C 205.436 30.426,205.200 30.662,205.200 31.427 C 205.200 32.198,204.993 32.400,204.200 32.400 C 203.408 32.400,203.200 32.602,203.200 33.372 C 203.200 34.076,202.951 34.380,202.300 34.472 C 201.730 34.553,201.354 34.921,201.275 35.475 C 201.198 36.021,200.821 36.398,200.275 36.475 C 199.794 36.544,199.227 36.995,199.015 37.478 C 198.803 37.961,198.218 38.459,197.715 38.586 C 197.069 38.748,196.800 39.107,196.800 39.808 C 196.800 40.378,196.569 40.800,196.255 40.800 C 195.890 40.800,195.774 41.129,195.902 41.800 C 196.022 42.426,195.910 42.800,195.604 42.800 C 195.335 42.800,195.216 42.536,195.340 42.213 C 195.464 41.890,195.423 41.538,195.249 41.430 C 194.928 41.232,194.832 41.702,194.779 43.740 C 194.754 44.664,194.602 44.842,193.974 44.677 C 192.697 44.343,192.894 46.901,194.200 47.600 C 194.750 47.894,195.200 48.283,195.200 48.463 C 195.200 48.770,196.879 49.993,199.750 51.776 C 206.492 55.963,225.200 75.349,225.200 78.147 C 225.200 78.362,225.509 78.878,225.887 79.296 C 227.027 80.555,231.600 88.906,231.600 89.727 C 231.600 89.858,232.050 90.628,232.600 91.438 C 233.150 92.249,233.600 93.184,233.600 93.516 C 233.600 94.023,234.286 95.648,235.998 99.200 C 236.250 99.724,240.521 99.825,269.643 100.000 C 299.933 100.182,303.113 100.262,304.230 100.874 C 304.906 101.245,307.066 101.848,309.030 102.214 C 310.993 102.580,312.842 103.014,313.138 103.177 C 314.774 104.081,315.600 103.209,315.600 100.577 C 315.600 98.144,316.149 96.947,316.789 97.982 C 317.009 98.338,317.153 98.299,317.332 97.834 C 317.495 97.409,317.348 97.196,316.887 97.188 C 316.255 97.177,316.257 97.142,316.916 96.759 C 317.584 96.370,317.629 95.405,317.581 82.370 L 317.530 68.398 316.565 68.156 C 315.642 67.924,315.600 67.768,315.600 64.612 L 315.600 61.311 314.600 61.502 C 313.609 61.691,313.600 61.667,313.600 58.854 C 313.600 56.160,313.549 56.002,312.600 55.764 C 311.775 55.557,311.592 55.259,311.554 54.057 C 311.473 51.505,311.427 51.403,310.300 51.273 C 309.297 51.158,309.199 51.000,309.194 49.473 C 309.188 47.858,308.785 46.695,308.255 46.766 C 307.391 46.882,307.200 46.680,307.200 45.649 C 307.200 45.016,306.885 44.251,306.500 43.949 C 305.866 43.451,305.851 43.466,306.349 44.100 C 306.837 44.722,306.798 44.800,306.002 44.800 C 305.288 44.800,305.151 44.629,305.327 43.956 C 305.487 43.346,305.333 43.055,304.774 42.909 C 304.282 42.780,304.000 42.360,304.000 41.753 C 304.000 41.229,303.820 40.800,303.600 40.800 C 303.380 40.800,303.200 40.353,303.200 39.808 C 303.200 39.083,302.931 38.748,302.200 38.564 C 301.568 38.406,301.200 38.031,301.200 37.547 C 301.200 37.015,300.832 36.706,300.000 36.540 C 299.071 36.354,298.800 36.086,298.800 35.350 C 298.800 34.603,298.586 34.400,297.800 34.400 C 297.000 34.400,296.800 34.200,296.800 33.400 C 296.800 32.600,296.600 32.400,295.800 32.400 C 295.000 32.400,294.800 32.200,294.800 31.400 C 294.800 30.551,294.615 30.400,293.576 30.400 C 292.863 30.400,292.456 30.233,292.600 30.000 C 292.736 29.780,292.589 29.600,292.273 29.600 C 291.401 29.600,290.632 28.540,291.283 28.237 C 291.567 28.105,291.305 28.062,290.700 28.143 C 289.680 28.278,289.143 27.836,289.961 27.533 C 290.159 27.460,290.057 27.157,289.734 26.859 C 289.234 26.399,289.165 26.422,289.273 27.018 C 289.343 27.402,289.160 27.801,288.867 27.903 C 288.501 28.030,288.376 27.793,288.467 27.144 C 288.574 26.382,288.399 26.177,287.554 26.079 C 286.914 26.004,286.340 25.587,286.074 25.003 C 285.730 24.248,285.278 24.022,283.919 23.924 C 282.428 23.816,282.204 23.681,282.232 22.900 C 282.261 22.075,282.085 22.000,280.132 22.000 C 278.125 22.000,278.000 21.942,278.000 21.000 C 278.000 19.935,277.065 19.740,273.100 19.978 C 271.671 20.065,271.600 20.010,271.600 18.834 C 271.600 17.485,271.884 17.554,265.967 17.472 C 265.084 17.460,264.533 17.257,264.533 16.944 C 264.533 16.664,264.653 16.509,264.800 16.600 C 264.947 16.691,265.067 16.515,265.067 16.209 C 265.067 15.549,234.986 15.376,234.580 16.033 M147.195 121.858 C 146.208 123.585,145.085 125.313,144.700 125.699 C 144.315 126.084,144.000 126.584,144.000 126.810 C 144.000 127.188,141.757 130.737,140.777 131.909 C 140.543 132.189,140.095 133.032,139.782 133.782 C 139.469 134.532,139.027 135.260,138.800 135.400 C 138.574 135.540,138.019 136.317,137.568 137.127 C 136.575 138.908,135.269 141.069,134.236 142.639 C 133.158 144.277,131.901 146.287,130.556 148.523 C 129.920 149.581,128.497 151.831,127.393 153.523 C 126.289 155.215,125.161 157.050,124.886 157.600 C 124.612 158.150,123.895 159.337,123.294 160.237 C 122.692 161.138,121.806 162.488,121.324 163.237 C 120.842 163.987,120.293 164.780,120.104 165.000 C 119.914 165.220,119.625 165.753,119.460 166.185 C 119.295 166.617,118.149 168.507,116.914 170.385 C 115.679 172.263,114.248 174.440,113.734 175.222 C 113.220 176.003,112.800 176.765,112.800 176.915 C 112.800 177.064,111.810 178.648,110.600 180.435 C 109.390 182.223,108.400 183.865,108.400 184.085 C 108.400 184.305,107.995 184.991,107.500 185.610 C 107.005 186.229,106.150 187.492,105.600 188.418 C 105.050 189.343,104.060 190.955,103.400 192.000 C 102.740 193.045,101.750 194.651,101.200 195.570 C 100.650 196.489,99.705 197.886,99.100 198.675 C 98.495 199.464,98.000 200.279,98.000 200.486 C 98.000 200.692,97.121 202.170,96.046 203.769 C 94.972 205.369,93.970 207.065,93.819 207.539 C 93.669 208.012,93.368 208.400,93.151 208.400 C 92.933 208.400,92.394 209.165,91.954 210.100 C 90.061 214.115,87.091 217.600,85.562 217.600 C 84.451 217.600,84.415 217.660,84.605 219.175 C 84.726 220.140,84.624 220.862,84.340 221.037 C 84.034 221.226,83.976 221.132,84.168 220.762 C 84.328 220.453,84.176 220.549,83.830 220.976 C 83.244 221.698,82.994 221.552,83.186 220.600 C 83.230 220.380,83.118 220.349,82.936 220.531 C 82.754 220.713,82.604 221.613,82.602 222.531 C 82.600 224.090,82.529 224.197,81.512 224.158 C 80.914 224.135,80.486 224.225,80.562 224.358 C 80.638 224.491,80.564 224.960,80.398 225.400 C 80.202 225.917,80.313 226.448,80.711 226.902 C 81.205 227.464,81.237 227.801,80.872 228.602 C 80.381 229.680,78.655 230.006,78.234 229.100 C 78.106 228.825,78.058 229.174,78.128 229.875 C 78.244 231.053,78.191 231.116,77.427 230.710 C 76.700 230.322,76.663 230.345,77.119 230.899 C 77.520 231.384,77.528 231.597,77.158 231.826 C 76.893 231.990,76.775 231.961,76.896 231.762 C 77.017 231.563,76.851 231.155,76.527 230.855 C 76.016 230.382,75.964 230.475,76.134 231.557 C 76.242 232.243,76.179 232.711,75.994 232.596 C 75.809 232.482,75.599 232.782,75.529 233.263 C 75.458 233.744,75.150 234.220,74.844 234.321 C 74.465 234.446,74.390 234.329,74.608 233.952 C 74.787 233.643,74.775 233.540,74.581 233.717 C 74.389 233.891,74.224 234.701,74.213 235.517 C 74.199 236.558,73.875 237.336,73.125 238.128 C 72.510 238.777,72.120 239.583,72.205 240.028 C 72.311 240.577,72.129 240.800,71.577 240.800 C 71.150 240.800,70.797 241.025,70.794 241.300 C 70.790 241.633,70.658 241.600,70.400 241.200 C 70.097 240.730,70.011 240.833,70.006 241.673 C 70.001 242.545,69.793 242.771,68.900 242.873 C 67.885 242.990,67.800 243.137,67.800 244.766 C 67.800 245.829,67.600 246.600,67.298 246.701 C 67.021 246.793,66.884 247.013,66.993 247.189 C 67.102 247.365,66.937 247.720,66.627 247.978 C 66.166 248.360,66.102 248.295,66.278 247.623 C 66.396 247.170,66.326 246.800,66.122 246.800 C 65.917 246.800,65.785 247.738,65.827 248.884 C 65.903 250.921,66.424 251.732,67.029 250.753 C 67.246 250.402,67.115 250.346,66.566 250.556 C 65.959 250.787,65.902 250.745,66.291 250.353 C 66.680 249.961,66.949 250.011,67.593 250.594 C 68.040 250.998,68.524 251.210,68.669 251.064 C 68.814 250.919,68.742 250.800,68.509 250.800 C 68.275 250.800,68.017 250.102,67.936 249.249 C 67.828 248.119,67.926 247.750,68.294 247.891 C 68.572 247.998,68.800 247.931,68.800 247.743 C 68.800 247.093,116.112 247.541,116.768 248.197 C 117.354 248.783,116.843 250.800,116.109 250.800 C 115.939 250.800,115.847 268.350,115.904 289.800 L 116.008 328.800 117.004 328.800 C 117.552 328.800,118.015 328.665,118.033 328.500 C 118.243 326.583,118.600 325.654,119.422 324.884 C 120.319 324.043,120.574 323.501,120.447 322.700 C 120.421 322.535,120.535 322.419,120.700 322.443 C 121.861 322.611,122.637 321.871,122.554 320.675 C 122.463 319.360,123.039 318.253,123.625 318.616 C 123.809 318.729,124.155 318.457,124.394 318.011 C 124.633 317.565,124.719 317.200,124.586 317.200 C 124.452 317.200,124.632 316.911,124.985 316.558 C 125.623 315.920,128.445 316.054,128.347 316.717 C 128.234 317.486,128.456 317.651,129.000 317.200 C 129.484 316.799,129.605 316.809,129.625 317.251 C 129.639 317.553,129.820 317.378,130.026 316.863 C 130.459 315.782,130.217 315.200,129.334 315.200 C 128.936 315.200,128.800 315.424,128.955 315.827 C 129.131 316.285,128.899 316.222,128.098 315.594 C 127.494 315.121,126.875 314.278,126.723 313.723 C 126.570 313.167,126.541 312.808,126.657 312.924 C 127.013 313.279,128.800 311.499,128.800 310.789 C 128.800 310.422,129.140 309.730,129.556 309.251 C 129.971 308.772,130.523 307.868,130.783 307.242 C 131.042 306.616,131.678 305.911,132.196 305.675 C 132.844 305.379,133.075 305.010,132.939 304.489 C 132.821 304.036,133.151 303.245,133.759 302.521 C 134.319 301.856,134.663 301.196,134.522 301.056 C 134.382 300.915,134.487 300.800,134.757 300.800 C 135.027 300.800,135.144 300.632,135.017 300.428 C 134.364 299.371,137.559 298.963,138.292 300.010 C 138.803 300.739,140.226 300.690,139.774 299.958 C 139.652 299.761,139.863 299.600,140.243 299.600 C 140.996 299.600,140.797 299.218,139.937 299.011 C 136.991 298.304,136.488 296.611,138.730 294.958 C 139.060 294.715,139.224 294.239,139.094 293.900 C 138.953 293.533,139.266 292.906,139.871 292.343 C 140.429 291.824,141.048 290.978,141.247 290.461 C 141.447 289.945,141.967 289.429,142.405 289.315 C 143.151 289.119,143.371 288.601,143.294 287.217 C 143.243 286.306,143.967 285.200,144.614 285.200 C 144.936 285.200,145.200 284.958,145.200 284.662 C 145.200 283.896,146.525 282.798,147.431 282.813 C 148.263 282.826,149.710 283.756,149.394 284.073 C 149.287 284.179,149.470 284.267,149.800 284.267 C 150.130 284.267,150.400 284.117,150.400 283.933 C 150.400 283.750,150.184 283.600,149.920 283.600 C 149.547 283.600,149.547 283.493,149.920 283.120 C 150.557 282.483,150.533 281.863,149.880 282.114 C 148.282 282.727,147.155 280.629,148.377 279.316 C 149.295 278.331,150.433 275.766,150.099 275.433 C 149.971 275.305,150.158 275.200,150.515 275.200 C 150.871 275.200,151.473 274.545,151.854 273.744 C 152.234 272.943,152.835 272.211,153.189 272.119 C 153.577 272.017,153.871 271.457,153.928 270.711 C 153.982 269.998,154.443 269.081,155.011 268.555 C 155.555 268.051,156.000 267.360,156.000 267.019 C 156.000 266.679,156.225 266.385,156.500 266.368 C 160.618 266.101,160.954 266.108,160.074 266.442 C 159.565 266.635,159.266 266.983,159.410 267.216 C 159.590 267.508,159.846 267.494,160.236 267.170 C 160.675 266.806,160.806 266.824,160.825 267.251 C 160.839 267.553,161.020 267.378,161.226 266.863 C 161.671 265.753,161.384 265.137,160.465 265.227 C 158.736 265.397,158.400 265.199,158.400 264.014 C 158.400 263.238,158.676 262.680,159.200 262.400 C 159.653 262.158,160.000 261.562,160.000 261.028 C 160.000 260.509,160.540 259.507,161.200 258.800 C 161.860 258.093,162.400 257.273,162.400 256.976 C 162.400 256.679,162.850 255.986,163.400 255.436 C 163.950 254.886,164.400 254.078,164.400 253.641 C 164.400 253.203,164.747 252.602,165.171 252.305 C 165.595 252.008,166.164 251.278,166.435 250.683 C 166.706 250.087,167.035 249.585,167.164 249.567 C 168.755 249.342,169.307 249.413,169.480 249.864 C 169.812 250.730,171.200 250.517,171.200 249.600 C 171.200 249.089,170.933 248.800,170.462 248.800 C 168.693 248.800,168.351 247.526,169.615 245.644 C 170.259 244.685,170.688 243.743,170.569 243.550 C 170.450 243.358,170.543 243.200,170.776 243.200 C 171.009 243.200,171.200 242.930,171.200 242.600 C 171.200 242.270,171.389 242.000,171.620 242.000 C 171.852 242.000,172.304 241.370,172.626 240.600 C 172.948 239.830,173.398 239.200,173.628 239.200 C 173.857 239.200,174.393 238.414,174.818 237.453 C 175.243 236.492,175.851 235.489,176.170 235.225 C 176.488 234.961,176.863 234.222,177.004 233.582 C 177.144 232.943,177.381 232.451,177.530 232.489 C 178.131 232.643,179.596 231.917,179.382 231.571 C 179.256 231.367,179.502 231.200,179.928 231.200 C 180.412 231.200,180.890 230.749,181.200 230.000 C 181.473 229.340,181.862 228.800,182.063 228.800 C 182.264 228.800,182.767 228.010,183.181 227.044 C 183.595 226.079,184.095 225.224,184.293 225.144 C 184.491 225.065,185.440 223.560,186.403 221.800 C 187.365 220.040,188.928 217.529,189.876 216.220 C 190.824 214.911,191.600 213.628,191.600 213.369 C 191.600 213.110,191.883 212.663,192.229 212.376 C 192.575 212.089,193.229 211.121,193.683 210.227 C 194.136 209.332,194.672 208.494,194.872 208.365 C 195.235 208.131,196.096 206.677,197.457 204.000 C 197.848 203.230,198.429 202.284,198.748 201.898 C 199.782 200.645,199.040 200.601,174.897 200.491 C 158.309 200.415,150.898 200.248,150.530 199.942 C 150.097 199.582,149.997 192.324,149.982 160.251 C 149.968 130.320,149.848 120.729,149.477 119.859 L 148.989 118.719 147.195 121.858 M358.350 182.200 C 358.322 182.310,358.269 182.625,358.232 182.900 C 358.194 183.175,357.947 183.355,357.682 183.300 C 357.417 183.245,357.200 183.380,357.200 183.600 C 357.200 184.597,359.144 183.326,359.187 182.300 C 359.201 181.970,358.430 181.878,358.350 182.200 M348.004 205.796 C 347.732 206.123,347.380 206.311,347.221 206.213 C 347.063 206.115,346.933 206.283,346.933 206.586 C 346.933 207.181,348.762 206.110,348.787 205.500 C 348.807 205.042,348.548 205.139,348.004 205.796 M308.122 232.967 C 308.165 233.205,307.992 233.361,307.738 233.313 C 307.484 233.265,307.182 233.469,307.068 233.767 C 306.764 234.560,308.137 234.112,308.682 233.241 C 309.022 232.695,309.000 232.533,308.584 232.533 C 308.287 232.533,308.079 232.728,308.122 232.967 M72.000 237.267 C 72.000 238.166,72.625 238.232,72.957 237.367 C 73.281 236.522,73.286 236.533,72.600 236.533 C 72.270 236.533,72.000 236.863,72.000 237.267 M168.505 253.714 C 168.557 253.981,168.375 254.155,168.100 254.100 C 167.825 254.045,167.600 254.180,167.600 254.400 C 167.600 254.941,168.056 254.884,168.912 254.235 C 169.523 253.771,169.538 253.662,169.017 253.462 C 168.661 253.325,168.449 253.430,168.505 253.714 M115.726 331.900 C 115.755 332.481,116.024 332.800,116.485 332.800 C 116.878 332.800,117.200 332.968,117.200 333.174 C 117.200 333.379,117.691 333.458,118.291 333.349 C 119.621 333.108,119.761 332.985,119.390 332.384 C 119.175 332.036,119.011 332.055,118.756 332.457 C 118.503 332.857,118.411 332.868,118.406 332.500 C 118.403 332.216,117.897 332.000,117.233 332.000 C 116.592 332.000,115.980 331.775,115.874 331.500 C 115.768 331.225,115.701 331.405,115.726 331.900 " stroke="none" fill="#fcc143" fill-rule="evenodd"></path><path id="path3" d="M264.653 16.251 C 265.064 16.586,265.205 16.764,264.967 16.647 C 264.728 16.531,264.533 16.680,264.533 16.979 C 264.533 17.279,264.773 17.432,265.067 17.319 C 265.930 16.988,265.695 15.777,264.753 15.706 C 263.934 15.645,263.931 15.663,264.653 16.251 M227.023 18.213 C 225.786 19.149,225.887 20.000,227.235 20.000 C 228.263 20.000,228.400 19.859,228.400 18.800 C 228.400 17.460,228.156 17.356,227.023 18.213 M271.600 18.800 C 271.600 19.867,271.733 20.000,272.800 20.000 C 274.249 20.000,274.402 19.127,273.111 18.223 C 271.852 17.341,271.600 17.437,271.600 18.800 M220.792 21.010 C 220.019 21.941,220.571 22.117,221.398 21.202 C 221.797 20.761,221.938 20.400,221.711 20.400 C 221.484 20.400,221.070 20.674,220.792 21.010 M278.602 21.202 C 279.002 21.644,279.415 21.918,279.521 21.812 C 279.790 21.543,278.792 20.400,278.289 20.400 C 278.062 20.400,278.203 20.761,278.602 21.202 M216.613 23.044 C 215.783 23.874,216.156 24.296,217.067 23.557 C 217.521 23.188,217.652 23.169,217.453 23.500 C 217.288 23.775,217.343 24.000,217.576 24.000 C 218.096 24.000,218.139 22.933,217.632 22.620 C 217.430 22.495,216.971 22.686,216.613 23.044 M282.000 22.976 C 282.000 23.293,282.208 23.681,282.462 23.838 C 282.775 24.032,282.815 23.943,282.585 23.562 C 282.295 23.081,282.345 23.080,282.933 23.557 C 283.842 24.294,284.218 23.875,283.390 23.048 C 282.588 22.245,282.000 22.215,282.000 22.976 M291.200 29.000 C 291.474 29.330,291.940 29.600,292.236 29.600 C 292.551 29.600,292.679 29.350,292.545 29.000 C 292.418 28.670,291.952 28.400,291.508 28.400 C 290.837 28.400,290.785 28.500,291.200 29.000 M120.792 33.410 C 120.024 34.335,120.479 34.429,121.544 33.566 C 122.188 33.044,122.299 32.800,121.893 32.800 C 121.566 32.800,121.070 33.074,120.792 33.410 M161.703 33.503 C 161.734 33.923,161.994 34.267,162.280 34.267 C 162.965 34.267,162.940 33.814,162.223 33.219 C 161.752 32.828,161.656 32.881,161.703 33.503 M112.844 35.244 C 112.351 35.704,112.037 36.170,112.147 36.280 C 112.257 36.390,112.751 36.104,113.244 35.644 C 113.738 35.185,114.052 34.718,113.942 34.608 C 113.832 34.498,113.338 34.785,112.844 35.244 M169.600 35.090 C 169.600 35.265,169.960 35.632,170.400 35.907 C 170.843 36.184,171.200 36.233,171.200 36.017 C 171.200 35.803,170.840 35.435,170.400 35.200 C 169.960 34.965,169.600 34.915,169.600 35.090 M195.001 41.477 C 195.077 41.875,195.153 42.335,195.169 42.500 C 195.186 42.665,195.393 42.800,195.628 42.800 C 196.196 42.800,195.931 41.106,195.332 40.909 C 195.062 40.820,194.922 41.060,195.001 41.477 M304.000 41.753 C 304.000 42.408,304.282 42.778,304.900 42.933 C 305.719 43.140,305.737 43.113,305.100 42.636 C 304.715 42.348,304.403 41.862,304.406 41.556 C 304.411 41.111,304.490 41.120,304.800 41.600 C 305.131 42.113,305.189 42.098,305.194 41.500 C 305.197 41.115,304.930 40.800,304.600 40.800 C 304.234 40.800,304.000 41.173,304.000 41.753 M309.312 50.373 C 309.272 50.908,309.492 51.128,310.027 51.088 C 310.919 51.021,310.996 50.756,310.320 50.080 C 309.644 49.404,309.379 49.481,309.312 50.373 M79.280 52.080 C 78.582 52.778,78.686 53.024,79.700 53.074 C 80.195 53.099,80.367 53.029,80.083 52.920 C 79.686 52.768,79.675 52.592,80.032 52.161 C 80.599 51.478,79.952 51.408,79.280 52.080 M311.614 53.820 C 311.606 54.051,311.825 54.482,312.100 54.779 C 312.500 55.210,312.500 55.261,312.100 55.035 C 311.825 54.880,311.600 54.922,311.600 55.130 C 311.600 55.469,313.222 56.111,313.465 55.869 C 313.520 55.814,313.129 55.236,312.597 54.584 C 312.064 53.933,311.622 53.589,311.614 53.820 M313.600 60.600 C 313.600 61.631,314.872 62.055,315.400 61.200 C 315.536 60.980,315.412 60.797,315.124 60.794 C 314.700 60.789,314.702 60.723,315.134 60.450 C 315.559 60.180,315.532 60.060,315.001 59.856 C 313.868 59.421,313.600 59.564,313.600 60.600 M316.296 68.560 C 315.633 69.063,315.632 69.128,316.272 69.647 C 316.854 70.119,316.904 70.118,316.616 69.639 C 316.392 69.268,316.527 68.896,317.015 68.539 C 317.421 68.243,317.584 68.006,317.376 68.013 C 317.169 68.020,316.683 68.266,316.296 68.560 M60.392 71.010 C 59.619 71.941,60.171 72.117,60.998 71.202 C 61.397 70.761,61.538 70.400,61.311 70.400 C 61.084 70.400,60.670 70.674,60.392 71.010 M45.778 98.035 C 45.631 98.274,45.709 98.636,45.952 98.838 C 46.195 99.041,46.306 99.087,46.200 98.940 C 46.094 98.794,46.207 98.432,46.452 98.137 C 46.757 97.770,46.763 97.600,46.473 97.600 C 46.239 97.600,45.926 97.796,45.778 98.035 M315.867 97.867 C 315.302 98.431,315.607 99.172,316.300 98.920 C 316.928 98.690,316.922 98.753,316.238 99.532 C 315.819 100.009,315.674 100.400,315.915 100.400 C 316.481 100.400,317.602 98.805,317.594 98.011 C 317.588 97.471,317.543 97.469,317.200 98.000 C 316.942 98.400,316.810 98.433,316.806 98.100 C 316.800 97.560,316.298 97.436,315.867 97.867 M43.848 104.210 C 43.491 104.566,43.200 105.058,43.200 105.304 C 43.200 105.550,43.578 105.345,44.040 104.849 C 45.004 103.814,44.828 103.229,43.848 104.210 M324.133 106.520 C 324.133 106.806,324.477 107.066,324.897 107.097 C 325.519 107.144,325.572 107.048,325.181 106.577 C 324.586 105.860,324.133 105.835,324.133 106.520 M41.611 112.587 C 41.343 112.909,41.186 113.342,41.262 113.550 C 41.338 113.757,41.723 113.493,42.119 112.963 C 42.885 111.936,42.431 111.599,41.611 112.587 M351.303 133.503 C 351.334 133.923,351.594 134.267,351.880 134.267 C 352.565 134.267,352.540 133.814,351.823 133.219 C 351.352 132.828,351.256 132.881,351.303 133.503 M357.802 150.402 C 358.202 150.844,358.615 151.118,358.721 151.012 C 358.990 150.743,357.992 149.600,357.489 149.600 C 357.262 149.600,357.403 149.961,357.802 150.402 M43.619 162.223 C 44.214 162.940,44.667 162.965,44.667 162.280 C 44.667 161.994,44.323 161.734,43.903 161.703 C 43.281 161.656,43.228 161.752,43.619 162.223 M45.600 168.400 C 45.835 168.840,46.202 169.200,46.414 169.200 C 46.959 169.200,46.893 168.836,46.229 168.171 C 45.411 167.354,45.100 167.467,45.600 168.400 M56.000 189.200 C 56.235 189.640,56.603 190.000,56.817 190.000 C 57.033 190.000,56.984 189.643,56.707 189.200 C 56.432 188.760,56.065 188.400,55.890 188.400 C 55.715 188.400,55.765 188.760,56.000 189.200 M353.306 195.656 C 353.245 196.458,354.217 196.253,354.546 195.396 C 354.676 195.058,354.491 194.873,354.056 194.906 C 353.672 194.935,353.335 195.272,353.306 195.656 M351.660 199.466 C 351.362 199.789,351.230 200.164,351.366 200.300 C 351.701 200.634,352.527 199.770,352.345 199.274 C 352.265 199.056,351.957 199.142,351.660 199.466 M83.023 219.289 C 82.273 220.360,82.214 220.959,82.900 220.547 C 83.219 220.355,83.195 220.499,82.832 220.946 C 82.091 221.859,83.111 221.724,83.928 220.800 C 84.318 220.360,84.382 220.350,84.168 220.762 C 83.976 221.131,84.035 221.226,84.338 221.038 C 85.213 220.498,84.874 219.488,83.900 219.733 L 83.000 219.959 83.944 219.179 C 84.631 218.613,84.719 218.400,84.267 218.400 C 83.925 218.400,83.365 218.800,83.023 219.289 M81.106 222.429 C 80.706 222.661,80.445 223.239,80.491 223.788 C 80.536 224.335,80.747 224.631,80.985 224.482 C 81.213 224.338,81.670 224.216,82.000 224.211 C 82.354 224.204,82.652 223.749,82.727 223.100 C 82.862 221.926,82.340 221.710,81.106 222.429 M78.498 226.266 C 78.221 226.377,78.087 226.618,78.200 226.801 C 78.313 226.983,78.225 227.608,78.004 228.189 C 77.739 228.887,77.738 229.162,78.001 228.999 C 78.221 228.864,78.400 228.943,78.400 229.176 C 78.400 230.079,80.412 229.611,80.872 228.602 C 81.574 227.061,80.106 225.617,78.498 226.266 M324.500 226.598 C 323.842 227.346,323.867 227.626,324.569 227.357 C 325.170 227.126,325.779 225.989,325.287 226.015 C 325.129 226.024,324.775 226.286,324.500 226.598 M319.969 228.167 C 319.756 228.399,319.744 229.600,319.955 229.600 C 320.308 229.600,321.200 228.731,321.200 228.387 C 321.200 228.193,320.122 228.000,319.969 228.167 M76.400 230.885 C 76.400 231.058,76.591 231.200,76.824 231.200 C 77.057 231.200,77.119 231.408,76.962 231.662 C 76.784 231.950,76.852 232.015,77.145 231.834 C 77.402 231.675,77.491 231.347,77.341 231.104 C 77.164 230.818,77.309 230.756,77.755 230.927 C 78.137 231.074,78.340 231.027,78.213 230.821 C 77.940 230.379,76.400 230.434,76.400 230.885 M179.382 231.571 C 179.596 231.917,178.131 232.643,177.530 232.489 C 177.381 232.451,177.144 232.943,177.004 233.582 C 176.863 234.222,176.488 234.961,176.170 235.225 C 175.851 235.489,175.243 236.492,174.818 237.453 C 174.393 238.414,173.857 239.200,173.628 239.200 C 173.398 239.200,172.948 239.830,172.626 240.600 C 172.304 241.370,171.852 242.000,171.620 242.000 C 171.389 242.000,171.200 242.270,171.200 242.600 C 171.200 242.930,171.009 243.200,170.776 243.200 C 170.543 243.200,170.450 243.358,170.569 243.550 C 170.688 243.743,170.259 244.685,169.615 245.644 C 168.351 247.526,168.693 248.800,170.462 248.800 C 170.933 248.800,171.200 249.089,171.200 249.600 C 171.200 250.517,169.812 250.730,169.480 249.864 C 169.307 249.413,168.755 249.342,167.164 249.567 C 167.035 249.585,166.706 250.087,166.435 250.683 C 166.164 251.278,165.595 252.008,165.171 252.305 C 164.747 252.602,164.400 253.203,164.400 253.641 C 164.400 254.078,163.950 254.886,163.400 255.436 C 162.850 255.986,162.400 256.679,162.400 256.976 C 162.400 257.273,161.860 258.093,161.200 258.800 C 160.540 259.507,160.000 260.509,160.000 261.028 C 160.000 261.562,159.653 262.158,159.200 262.400 C 158.300 262.882,158.057 265.178,158.900 265.232 C 159.175 265.250,159.900 265.302,160.511 265.346 C 161.861 265.445,163.600 263.691,163.600 262.231 C 163.600 261.524,163.848 261.220,164.500 261.128 C 165.268 261.019,165.418 260.721,165.522 259.100 C 165.632 257.385,165.739 257.200,166.622 257.200 C 167.532 257.200,167.600 257.058,167.600 255.153 C 167.600 253.197,167.643 253.115,168.580 253.294 C 169.119 253.397,169.548 253.373,169.533 253.241 C 169.406 252.134,169.698 251.200,170.171 251.200 C 171.096 251.200,171.939 250.089,171.823 249.025 C 171.763 248.482,171.823 248.051,171.957 248.066 C 173.031 248.192,174.000 246.829,174.000 245.194 C 174.000 244.693,174.199 244.501,174.569 244.644 C 175.160 244.870,176.084 243.584,175.969 242.695 C 175.769 241.146,176.035 240.538,176.900 240.568 C 177.709 240.597,177.812 240.387,177.921 238.500 C 178.036 236.507,178.098 236.400,179.138 236.400 C 180.221 236.400,180.233 236.371,180.217 233.800 C 180.205 231.933,180.052 231.200,179.676 231.200 C 179.388 231.200,179.256 231.367,179.382 231.571 M74.178 233.378 C 74.246 234.002,73.944 234.652,73.343 235.175 C 72.824 235.626,72.400 236.204,72.400 236.459 C 72.400 236.720,72.778 236.590,73.262 236.162 L 74.124 235.400 73.367 236.600 C 72.951 237.260,72.383 238.038,72.105 238.329 C 71.827 238.619,71.597 239.069,71.594 239.329 C 71.590 239.626,71.479 239.652,71.294 239.400 C 70.665 238.544,70.083 238.854,70.163 240.002 C 70.241 241.126,70.800 242.236,70.800 241.267 C 70.800 241.010,71.150 240.800,71.577 240.800 C 72.129 240.800,72.311 240.577,72.205 240.028 C 72.120 239.585,72.509 238.775,73.118 238.128 C 73.706 237.504,74.204 236.485,74.235 235.847 C 74.265 235.212,74.585 234.528,74.945 234.327 C 75.305 234.125,75.597 233.564,75.594 233.080 C 75.589 232.365,75.515 232.313,75.200 232.800 C 74.942 233.200,74.810 233.233,74.806 232.900 C 74.803 232.625,74.636 232.400,74.435 232.400 C 74.235 232.400,74.119 232.840,74.178 233.378 M66.054 248.022 C 65.387 249.530,65.613 250.638,66.555 250.473 C 66.971 250.401,67.172 250.521,67.027 250.756 C 66.856 251.033,74.611 251.173,91.062 251.191 C 104.420 251.205,115.401 251.268,115.463 251.330 C 115.526 251.392,115.593 269.626,115.612 291.849 L 115.648 332.254 116.868 332.075 C 117.637 331.963,118.218 332.101,118.438 332.448 C 118.712 332.881,118.789 332.887,118.794 332.476 C 118.797 332.188,118.980 332.064,119.200 332.200 C 119.420 332.336,119.600 332.257,119.600 332.024 C 119.600 331.791,119.849 331.600,120.154 331.600 C 120.843 331.600,121.880 330.063,122.063 328.771 C 122.160 328.082,122.415 327.837,122.940 327.927 C 123.384 328.003,123.575 327.883,123.417 327.627 C 123.271 327.392,123.314 327.200,123.512 327.200 C 123.709 327.200,123.895 326.545,123.925 325.743 C 123.989 324.048,124.036 323.978,125.155 323.893 C 125.900 323.837,126.000 323.581,126.000 321.715 C 126.000 319.726,126.059 319.600,127.000 319.600 C 127.761 319.600,128.007 319.385,128.031 318.700 C 128.047 318.205,128.121 317.490,128.194 317.111 C 128.386 316.110,125.867 315.676,124.985 316.558 C 124.632 316.911,124.452 317.200,124.586 317.200 C 124.719 317.200,124.633 317.565,124.394 318.011 C 124.155 318.457,123.809 318.729,123.625 318.616 C 123.039 318.253,122.463 319.360,122.554 320.675 C 122.637 321.871,121.861 322.611,120.700 322.443 C 120.535 322.419,120.421 322.535,120.447 322.700 C 120.574 323.501,120.319 324.043,119.422 324.884 C 118.600 325.654,118.243 326.583,118.033 328.500 C 118.015 328.665,117.552 328.800,117.004 328.800 L 116.008 328.800 115.904 289.800 C 115.847 268.350,115.939 250.800,116.109 250.800 C 116.843 250.800,117.354 248.783,116.768 248.197 C 116.112 247.541,68.800 247.093,68.800 247.743 C 68.800 247.931,68.572 247.998,68.294 247.891 C 67.922 247.749,67.830 248.133,67.945 249.340 C 68.084 250.801,68.031 250.924,67.468 250.457 C 67.120 250.168,66.647 250.047,66.418 250.189 C 65.753 250.600,65.928 248.743,66.626 247.971 C 66.970 247.591,67.099 247.185,66.911 247.069 C 66.723 246.953,66.338 247.382,66.054 248.022 M270.666 248.173 C 270.522 248.548,270.693 248.728,271.156 248.693 C 271.547 248.664,271.867 248.406,271.867 248.120 C 271.867 247.416,270.940 247.458,270.666 248.173 M278.133 248.120 C 278.133 248.406,278.453 248.664,278.844 248.693 C 279.307 248.728,279.478 248.548,279.334 248.173 C 279.060 247.458,278.133 247.416,278.133 248.120 M156.682 266.329 C 156.307 266.400,156.000 266.724,156.000 267.048 C 156.000 267.373,155.555 268.051,155.011 268.555 C 154.443 269.081,153.982 269.998,153.928 270.711 C 153.871 271.457,153.577 272.017,153.189 272.119 C 152.835 272.211,152.234 272.943,151.854 273.744 C 151.473 274.545,150.871 275.200,150.515 275.200 C 150.158 275.200,149.971 275.305,150.099 275.433 C 150.433 275.766,149.295 278.331,148.377 279.316 C 147.155 280.629,148.282 282.727,149.880 282.114 C 150.600 281.838,150.533 282.591,149.783 283.214 C 149.316 283.602,149.054 283.614,148.703 283.263 C 147.679 282.239,145.200 283.278,145.200 284.731 C 145.200 284.989,144.936 285.200,144.614 285.200 C 143.967 285.200,143.243 286.306,143.294 287.217 C 143.371 288.601,143.151 289.119,142.405 289.315 C 141.967 289.429,141.447 289.945,141.247 290.461 C 141.048 290.978,140.429 291.824,139.871 292.343 C 139.266 292.906,138.953 293.533,139.094 293.900 C 139.224 294.239,139.060 294.715,138.730 294.958 C 137.849 295.608,137.170 297.056,137.429 297.732 C 137.720 298.489,140.800 299.550,140.800 298.893 C 140.800 298.728,141.259 298.097,141.821 297.491 C 142.382 296.886,142.754 296.249,142.647 296.076 C 142.390 295.661,142.816 295.101,143.800 294.559 C 144.349 294.257,144.663 293.567,144.800 292.359 C 144.962 290.933,145.152 290.600,145.800 290.600 C 146.483 290.600,146.618 290.293,146.721 288.500 C 146.831 286.588,146.927 286.400,147.794 286.400 C 148.536 286.400,148.775 286.157,148.873 285.300 C 148.949 284.643,149.213 284.244,149.530 284.310 C 149.821 284.370,149.945 284.235,149.806 284.010 C 149.667 283.784,149.743 283.600,149.976 283.600 C 150.209 283.600,150.405 283.825,150.412 284.100 C 150.419 284.375,150.614 284.274,150.846 283.876 C 151.077 283.477,151.169 282.895,151.048 282.582 C 150.925 282.261,151.173 281.829,151.615 281.592 C 152.047 281.361,152.400 280.976,152.400 280.737 C 152.400 280.452,152.193 280.473,151.800 280.800 C 151.385 281.144,151.200 281.159,151.200 280.849 C 151.200 280.602,151.380 280.377,151.600 280.350 C 151.820 280.322,152.223 280.278,152.496 280.250 C 152.769 280.223,153.084 279.660,153.197 279.000 C 153.322 278.267,153.751 277.647,154.297 277.407 C 154.789 277.191,155.173 276.831,155.149 276.607 C 154.947 274.720,155.237 274.000,156.200 274.000 C 157.145 274.000,157.200 273.880,157.200 271.800 C 157.200 269.720,157.255 269.600,158.200 269.600 C 158.987 269.600,159.211 269.387,159.250 268.600 C 159.340 266.803,159.391 266.684,160.200 266.394 C 160.996 266.109,158.124 266.056,156.682 266.329 M135.485 299.656 C 135.099 299.872,134.888 300.218,135.015 300.425 C 135.143 300.631,135.027 300.800,134.757 300.800 C 134.487 300.800,134.382 300.915,134.522 301.056 C 134.663 301.196,134.319 301.856,133.759 302.521 C 133.151 303.245,132.821 304.036,132.939 304.489 C 133.075 305.010,132.844 305.379,132.196 305.675 C 131.678 305.911,131.042 306.616,130.783 307.242 C 130.523 307.868,129.971 308.772,129.556 309.251 C 129.140 309.730,128.800 310.422,128.800 310.789 C 128.800 311.499,127.013 313.279,126.657 312.924 C 126.541 312.808,126.570 313.167,126.723 313.723 C 126.875 314.278,127.494 315.121,128.098 315.594 C 128.899 316.222,129.131 316.285,128.955 315.827 C 128.799 315.421,128.937 315.200,129.345 315.200 C 129.720 315.200,129.888 315.426,129.760 315.760 C 129.642 316.067,129.736 316.437,129.968 316.580 C 130.213 316.732,130.303 316.612,130.181 316.295 C 130.066 315.994,130.436 315.247,131.004 314.634 C 131.571 314.021,132.140 312.998,132.268 312.360 C 132.478 311.310,132.828 311.015,133.700 311.153 C 133.865 311.179,134.027 310.975,134.061 310.700 C 134.094 310.425,134.164 310.020,134.215 309.800 C 134.266 309.580,134.328 308.905,134.354 308.300 C 134.392 307.394,134.583 307.200,135.439 307.200 C 136.437 307.200,136.472 307.122,136.339 305.200 C 136.193 303.105,136.784 302.555,137.949 303.700 C 138.228 303.975,138.423 304.020,138.381 303.800 C 138.098 302.309,138.466 301.270,139.356 301.047 C 140.457 300.770,141.111 299.600,140.164 299.600 C 139.828 299.600,139.652 299.761,139.774 299.958 C 140.204 300.654,138.815 300.756,138.311 300.066 C 137.725 299.263,136.505 299.086,135.485 299.656 M195.829 323.029 C 195.024 323.833,195.038 323.962,195.921 323.896 C 196.317 323.866,196.666 323.517,196.696 323.121 C 196.762 322.238,196.633 322.224,195.829 323.029 M203.306 323.144 C 203.335 323.528,203.672 323.865,204.056 323.894 C 204.491 323.927,204.676 323.742,204.546 323.404 C 204.217 322.547,203.245 322.342,203.306 323.144 M115.600 333.243 C 115.600 333.486,115.870 333.582,116.200 333.455 C 116.539 333.325,116.800 333.446,116.800 333.733 C 116.800 334.012,117.238 334.240,117.774 334.240 C 118.310 334.240,118.659 334.096,118.551 333.920 C 118.442 333.744,118.528 333.600,118.743 333.600 C 118.958 333.600,119.224 333.825,119.335 334.100 C 119.452 334.390,119.550 334.296,119.568 333.876 C 119.594 333.292,119.368 333.188,118.400 333.341 C 117.740 333.445,117.200 333.366,117.200 333.165 C 117.200 332.964,116.840 332.800,116.400 332.800 C 115.960 332.800,115.600 332.999,115.600 333.243 " stroke="none" fill="#ec9c44" fill-rule="evenodd"></path><path id="path4" d="M234.204 16.406 C 234.434 16.779,234.354 16.868,233.932 16.706 C 233.576 16.569,233.333 16.703,233.333 17.038 C 233.333 17.347,233.554 17.600,233.824 17.600 C 234.492 17.600,234.872 16.492,234.321 16.151 C 234.031 15.972,233.991 16.061,234.204 16.406 M265.606 16.729 C 265.602 17.386,265.797 17.621,266.272 17.529 C 266.883 17.412,267.141 16.754,266.545 16.834 C 266.404 16.853,266.137 16.628,265.951 16.334 C 265.710 15.953,265.610 16.067,265.606 16.729 M211.200 26.800 C 211.200 27.020,211.065 27.155,210.900 27.100 C 210.735 27.045,210.523 27.180,210.428 27.400 C 210.334 27.620,210.520 27.851,210.842 27.913 C 211.187 27.979,211.453 27.692,211.489 27.213 C 211.523 26.766,211.471 26.400,211.375 26.400 C 211.279 26.400,211.200 26.580,211.200 26.800 M288.612 26.917 C 288.441 27.312,288.413 27.747,288.551 27.884 C 288.957 28.290,289.284 27.720,289.097 26.931 C 288.932 26.233,288.910 26.232,288.612 26.917 M121.900 33.278 C 121.007 34.199,121.010 34.210,122.200 34.308 C 123.189 34.390,123.484 33.825,122.894 32.978 C 122.702 32.702,122.357 32.806,121.900 33.278 M159.733 33.051 C 159.733 33.333,159.883 33.472,160.067 33.359 C 160.250 33.245,160.400 33.431,160.400 33.772 C 160.400 34.191,160.730 34.364,161.422 34.306 C 162.285 34.235,162.348 34.151,161.828 33.771 C 161.490 33.524,161.307 33.226,161.423 33.110 C 161.539 32.994,161.206 32.818,160.683 32.718 C 160.082 32.603,159.733 32.725,159.733 33.051 M113.780 35.315 L 112.716 36.231 114.191 36.330 C 115.128 36.393,115.572 36.278,115.409 36.015 C 115.268 35.787,114.848 35.597,114.476 35.594 C 113.910 35.589,113.895 35.528,114.381 35.220 C 114.700 35.018,115.105 34.942,115.281 35.050 C 115.456 35.158,115.600 35.057,115.600 34.824 C 115.600 34.147,114.927 34.329,113.780 35.315 M168.500 34.832 C 168.885 35.056,169.200 35.463,169.200 35.735 C 169.200 36.007,169.596 36.260,170.080 36.296 C 170.902 36.358,170.885 36.298,169.817 35.381 C 169.189 34.842,168.479 34.405,168.238 34.412 C 167.997 34.419,168.115 34.608,168.500 34.832 M107.033 37.611 L 105.867 38.800 106.933 38.800 C 107.520 38.800,108.000 38.609,108.000 38.376 C 108.000 38.143,108.180 38.064,108.400 38.200 C 108.627 38.340,108.800 38.004,108.800 37.424 C 108.800 36.112,108.470 36.147,107.033 37.611 M101.384 39.225 C 101.257 39.431,101.613 39.600,102.176 39.600 C 102.739 39.600,103.200 39.458,103.200 39.285 C 103.200 38.831,101.659 38.781,101.384 39.225 M179.800 39.729 C 179.871 40.720,181.509 41.195,182.018 40.371 C 182.525 39.550,182.031 38.923,180.849 38.889 C 179.947 38.863,179.750 39.021,179.800 39.729 M93.039 43.137 C 92.654 43.760,93.385 44.328,93.882 43.792 C 94.261 43.384,94.242 43.225,93.795 43.053 C 93.482 42.933,93.142 42.971,93.039 43.137 M189.594 43.476 C 189.589 44.090,189.529 44.109,189.200 43.600 C 188.987 43.270,188.809 43.203,188.806 43.451 C 188.801 43.863,189.960 45.092,190.031 44.749 C 190.285 43.511,190.272 43.168,189.964 42.978 C 189.764 42.854,189.597 43.078,189.594 43.476 M193.724 43.799 C 193.201 44.365,193.437 44.800,194.267 44.800 C 194.830 44.800,195.010 43.774,194.500 43.466 C 194.335 43.366,193.986 43.516,193.724 43.799 M305.467 43.467 C 304.963 43.971,305.201 44.800,305.849 44.800 C 306.347 44.800,306.394 44.675,306.052 44.263 C 305.807 43.968,305.725 43.608,305.870 43.463 C 306.015 43.318,306.043 43.200,305.933 43.200 C 305.823 43.200,305.613 43.320,305.467 43.467 M192.372 45.547 C 192.592 45.958,192.692 46.375,192.594 46.472 C 192.381 46.686,195.600 49.894,196.678 50.542 C 197.096 50.794,198.033 51.360,198.760 51.800 C 203.106 54.433,213.817 64.385,218.346 70.000 C 219.677 71.650,221.058 73.330,221.416 73.733 C 221.773 74.136,222.429 75.081,222.872 75.833 C 223.316 76.585,223.827 77.200,224.008 77.200 C 224.190 77.200,224.550 77.843,224.809 78.628 C 225.068 79.413,225.516 80.146,225.804 80.257 C 226.092 80.367,226.434 80.881,226.564 81.398 C 226.694 81.915,227.222 82.847,227.739 83.469 C 228.256 84.091,228.796 85.082,228.940 85.672 C 229.084 86.262,229.444 86.987,229.740 87.283 C 230.037 87.580,230.509 88.537,230.789 89.411 C 231.069 90.285,231.622 91.360,232.017 91.800 C 232.412 92.240,232.860 93.277,233.013 94.103 C 233.165 94.930,233.605 96.010,233.990 96.503 C 234.375 96.997,234.827 97.850,234.994 98.400 C 235.633 100.504,234.016 100.400,266.233 100.400 C 296.072 100.400,300.717 100.570,304.000 101.781 C 304.770 102.065,306.480 102.419,307.800 102.568 C 309.120 102.717,311.045 103.133,312.078 103.491 C 313.544 103.999,314.158 104.043,314.878 103.691 C 315.777 103.251,315.770 103.239,314.600 103.237 C 312.831 103.234,305.159 101.458,304.000 100.782 C 303.154 100.290,297.863 100.169,269.643 100.000 C 240.521 99.825,236.250 99.724,235.998 99.200 C 234.286 95.648,233.600 94.023,233.600 93.516 C 233.600 93.184,233.150 92.249,232.600 91.438 C 232.050 90.628,231.600 89.858,231.600 89.727 C 231.600 88.906,227.027 80.555,225.887 79.296 C 225.509 78.878,225.200 78.362,225.200 78.147 C 225.200 75.349,206.492 55.963,199.750 51.776 C 196.879 49.993,195.200 48.770,195.200 48.463 C 195.200 48.283,194.750 47.894,194.200 47.600 C 193.495 47.223,193.200 46.731,193.200 45.932 C 193.200 45.181,192.993 44.800,192.586 44.800 C 192.110 44.800,192.062 44.968,192.372 45.547 M86.172 47.555 C 86.466 48.030,85.415 48.873,84.999 48.497 C 84.819 48.333,84.807 48.435,84.973 48.722 C 85.430 49.514,86.503 49.117,86.658 48.100 C 86.733 47.605,86.605 47.200,86.374 47.200 C 86.142 47.200,86.051 47.360,86.172 47.555 M76.900 53.492 C 76.625 53.588,76.403 53.967,76.406 54.333 C 76.411 54.910,76.465 54.919,76.800 54.400 C 77.131 53.887,77.189 53.902,77.194 54.500 C 77.197 54.885,77.470 55.200,77.800 55.200 C 78.130 55.200,78.400 54.859,78.400 54.443 C 78.400 53.636,77.721 53.206,76.900 53.492 M72.243 58.233 C 71.822 59.330,71.972 59.600,73.000 59.600 C 73.800 59.600,74.000 59.400,74.000 58.600 C 74.000 57.449,72.652 57.168,72.243 58.233 M66.316 64.052 C 65.385 64.626,65.581 66.099,66.553 65.838 C 67.019 65.713,67.533 65.608,67.696 65.605 C 67.858 65.602,67.956 65.180,67.914 64.667 C 67.835 63.713,67.237 63.483,66.316 64.052 M315.606 66.900 C 315.599 68.106,316.044 68.311,316.770 67.436 C 317.091 67.050,317.106 66.789,316.819 66.612 C 316.589 66.469,316.397 66.498,316.394 66.676 C 316.391 66.854,316.213 66.730,316.000 66.400 C 315.698 65.932,315.611 66.043,315.606 66.900 M62.700 68.432 C 61.756 68.982,61.813 69.816,62.800 69.890 C 63.398 69.935,63.600 69.704,63.600 68.975 C 63.600 67.867,63.635 67.888,62.700 68.432 M56.937 76.655 C 57.226 77.172,56.266 78.133,55.863 77.730 C 55.718 77.585,55.600 77.666,55.600 77.910 C 55.600 78.571,56.103 78.739,57.000 78.378 C 57.529 78.165,57.596 78.045,57.200 78.022 C 56.669 77.992,56.669 77.944,57.197 77.611 C 57.705 77.289,57.711 77.157,57.238 76.717 C 56.933 76.432,56.797 76.405,56.937 76.655 M53.700 80.665 C 52.670 81.080,53.136 82.402,54.300 82.368 C 54.905 82.351,55.174 82.246,54.898 82.134 C 54.621 82.023,54.521 81.722,54.674 81.466 C 54.828 81.210,54.649 81.247,54.277 81.549 C 53.509 82.171,53.346 81.614,54.080 80.880 C 54.586 80.374,54.517 80.335,53.700 80.665 M46.511 98.049 C 46.264 98.296,46.158 98.748,46.276 99.053 C 46.429 99.453,46.280 99.535,45.745 99.346 C 45.224 99.162,45.120 99.212,45.400 99.513 C 46.275 100.454,46.906 100.210,46.983 98.900 C 47.025 98.185,47.037 97.600,47.010 97.600 C 46.982 97.600,46.758 97.802,46.511 98.049 M43.700 105.177 C 42.641 106.061,42.557 106.621,43.433 106.957 C 44.602 107.406,44.826 107.207,44.731 105.800 C 44.679 105.030,44.628 104.406,44.618 104.413 C 44.608 104.421,44.195 104.764,43.700 105.177 M322.111 105.992 C 322.078 106.428,322.250 106.907,322.493 107.058 C 322.782 107.236,322.844 107.092,322.673 106.645 C 322.516 106.237,322.570 106.058,322.805 106.203 C 323.022 106.337,323.200 106.707,323.200 107.024 C 323.200 107.375,323.599 107.600,324.224 107.600 C 324.815 107.600,325.141 107.428,324.996 107.193 C 324.858 106.970,324.549 106.908,324.311 107.055 C 324.061 107.209,323.991 107.139,324.145 106.889 C 324.293 106.650,324.010 106.172,323.518 105.827 C 322.359 105.015,322.183 105.036,322.111 105.992 M326.000 108.357 C 326.000 108.774,326.270 109.218,326.600 109.345 C 326.989 109.494,327.202 109.333,327.206 108.887 C 327.211 108.297,327.267 108.285,327.600 108.800 C 327.937 109.321,327.989 109.313,327.994 108.743 C 328.000 108.134,327.239 107.600,326.367 107.600 C 326.165 107.600,326.000 107.941,326.000 108.357 M329.606 109.867 C 329.592 110.917,330.137 111.600,330.987 111.600 C 331.482 111.600,332.226 112.050,332.639 112.600 C 333.052 113.150,333.617 113.600,333.895 113.600 C 334.396 113.600,334.548 114.047,334.437 115.200 C 334.393 115.665,334.475 115.646,334.801 115.117 C 335.032 114.741,335.486 114.535,335.811 114.659 C 336.135 114.784,336.400 114.665,336.400 114.396 C 336.400 114.107,336.079 113.991,335.614 114.112 C 335.088 114.250,334.752 114.079,334.599 113.596 C 334.473 113.199,334.066 112.758,333.696 112.615 C 333.117 112.393,333.105 112.305,333.611 111.985 C 334.067 111.696,333.974 111.609,333.200 111.600 C 332.094 111.586,331.135 111.103,331.126 110.555 C 331.123 110.360,330.929 110.255,330.697 110.321 C 330.464 110.388,330.125 110.208,329.943 109.921 C 329.720 109.571,329.610 109.553,329.606 109.867 M42.000 113.400 C 42.000 113.730,41.768 114.000,41.485 114.000 C 41.202 114.000,40.950 114.405,40.926 114.900 C 40.901 115.395,40.968 115.575,41.074 115.300 C 41.180 115.025,41.610 114.800,42.029 114.800 C 42.597 114.800,42.770 114.546,42.708 113.800 C 42.620 112.736,42.000 112.386,42.000 113.400 M148.229 118.228 C 147.884 118.573,147.491 119.293,147.357 119.828 C 147.223 120.363,146.951 120.800,146.753 120.800 C 146.554 120.800,145.989 121.587,145.496 122.549 C 145.003 123.511,143.835 125.437,142.900 126.829 C 141.965 128.220,141.200 129.562,141.200 129.810 C 141.200 130.058,140.750 130.683,140.200 131.200 C 139.650 131.717,139.200 132.354,139.200 132.616 C 139.200 132.878,138.801 133.599,138.313 134.219 C 137.340 135.457,136.471 136.927,135.220 139.457 C 134.769 140.369,134.130 141.218,133.800 141.345 C 133.470 141.471,133.200 141.826,133.200 142.132 C 133.200 142.439,132.660 143.369,132.000 144.200 C 131.340 145.031,130.800 146.039,130.800 146.441 C 130.800 146.843,130.454 147.357,130.032 147.583 C 129.610 147.809,129.063 148.603,128.817 149.349 C 128.571 150.094,128.017 151.023,127.585 151.414 C 127.153 151.804,126.800 152.344,126.800 152.613 C 126.800 152.882,126.501 153.349,126.135 153.651 C 125.769 153.953,125.128 154.920,124.711 155.800 C 124.009 157.280,122.579 159.530,121.605 160.685 C 121.380 160.952,120.979 161.672,120.714 162.285 C 120.448 162.898,119.864 163.878,119.416 164.461 C 118.967 165.045,118.060 166.452,117.400 167.588 C 116.740 168.724,115.705 170.296,115.100 171.082 C 114.495 171.867,114.000 172.835,114.000 173.231 C 114.000 173.628,113.835 174.055,113.633 174.180 C 112.960 174.595,110.000 179.182,110.000 179.808 C 110.000 180.147,109.730 180.529,109.400 180.655 C 109.070 180.782,108.460 181.653,108.045 182.591 C 107.630 183.529,107.088 184.422,106.839 184.576 C 106.591 184.729,106.130 185.472,105.814 186.227 C 105.499 186.982,105.071 187.600,104.864 187.600 C 104.657 187.600,104.213 188.285,103.878 189.123 C 103.543 189.960,102.983 190.882,102.634 191.172 C 102.285 191.461,102.000 191.921,102.000 192.194 C 102.000 192.467,101.460 193.369,100.800 194.200 C 100.140 195.031,99.600 196.025,99.600 196.409 C 99.600 196.793,99.172 197.388,98.649 197.731 C 98.126 198.074,97.575 198.844,97.425 199.443 C 97.275 200.042,96.793 200.997,96.354 201.566 C 93.824 204.848,93.199 205.755,93.193 206.155 C 93.184 206.668,91.128 209.885,90.189 210.855 C 89.840 211.215,89.421 212.011,89.257 212.624 C 89.093 213.237,88.624 213.933,88.215 214.169 C 87.805 214.406,87.137 214.918,86.730 215.306 C 86.040 215.962,85.920 215.966,84.994 215.360 C 84.447 215.001,84.000 214.841,84.000 215.003 C 84.000 215.165,83.775 215.124,83.500 214.912 C 82.733 214.320,80.689 214.516,80.503 215.200 C 80.357 215.733,80.386 215.733,80.763 215.200 C 81.051 214.793,81.190 214.761,81.194 215.100 C 81.197 215.375,81.335 215.579,81.500 215.553 C 82.343 215.419,82.661 215.684,82.632 216.496 C 82.569 218.276,86.377 218.006,87.952 216.119 C 89.790 213.917,91.042 212.033,91.954 210.100 C 92.394 209.165,92.933 208.400,93.151 208.400 C 93.368 208.400,93.669 208.012,93.819 207.539 C 93.970 207.065,94.972 205.369,96.046 203.769 C 97.121 202.170,98.000 200.692,98.000 200.486 C 98.000 200.279,98.495 199.464,99.100 198.675 C 99.705 197.886,100.650 196.489,101.200 195.570 C 101.750 194.651,102.740 193.045,103.400 192.000 C 104.060 190.955,105.050 189.343,105.600 188.418 C 106.150 187.492,107.005 186.229,107.500 185.610 C 107.995 184.991,108.400 184.305,108.400 184.085 C 108.400 183.865,109.390 182.223,110.600 180.435 C 111.810 178.648,112.800 177.064,112.800 176.915 C 112.800 176.765,113.220 176.003,113.734 175.222 C 114.248 174.440,115.679 172.263,116.914 170.385 C 118.149 168.507,119.295 166.617,119.460 166.185 C 119.625 165.753,119.914 165.220,120.104 165.000 C 120.293 164.780,120.842 163.987,121.324 163.237 C 121.806 162.488,122.692 161.138,123.294 160.237 C 123.895 159.337,124.612 158.150,124.886 157.600 C 125.161 157.050,126.289 155.215,127.393 153.523 C 128.497 151.831,129.920 149.581,130.556 148.523 C 131.901 146.287,133.158 144.277,134.236 142.639 C 135.269 141.069,136.575 138.908,137.568 137.127 C 138.019 136.317,138.574 135.540,138.800 135.400 C 139.027 135.260,139.469 134.532,139.782 133.782 C 140.095 133.032,140.543 132.189,140.777 131.909 C 141.757 130.737,144.000 127.188,144.000 126.810 C 144.000 126.584,144.315 126.084,144.700 125.699 C 145.085 125.313,146.208 123.585,147.195 121.858 L 148.989 118.719 149.477 119.859 C 149.848 120.729,149.968 130.320,149.982 160.251 C 149.997 192.324,150.097 199.582,150.530 199.942 C 150.898 200.248,158.309 200.415,174.897 200.491 C 199.040 200.601,199.782 200.645,198.748 201.898 C 198.429 202.284,197.848 203.230,197.457 204.000 C 196.096 206.677,195.235 208.131,194.872 208.365 C 194.672 208.494,194.136 209.332,193.683 210.227 C 193.229 211.121,192.575 212.089,192.229 212.376 C 191.883 212.663,191.600 213.110,191.600 213.369 C 191.600 213.628,190.824 214.911,189.876 216.220 C 188.928 217.529,187.370 220.023,186.414 221.763 C 185.457 223.502,184.343 225.257,183.937 225.663 C 183.532 226.068,183.200 226.670,183.200 227.000 C 183.200 227.330,182.847 227.953,182.417 228.383 C 181.300 229.500,180.000 232.190,180.000 233.384 L 180.000 234.400 238.800 234.400 C 276.463 234.400,297.600 234.261,297.600 234.013 C 297.600 233.799,297.329 233.729,296.997 233.857 C 296.561 234.024,296.422 233.853,296.497 233.240 L 296.600 232.391 259.000 232.245 C 223.955 232.109,214.336 231.872,201.600 230.833 C 198.850 230.608,196.375 230.419,196.100 230.412 C 195.038 230.386,195.468 225.705,196.600 224.963 C 199.085 223.335,196.920 217.200,193.860 217.200 C 193.213 217.200,192.820 216.921,192.673 216.357 C 192.375 215.218,193.036 213.600,193.800 213.600 C 194.168 213.600,194.517 213.116,194.658 212.412 C 194.788 211.758,195.214 211.122,195.604 210.999 C 196.352 210.761,196.785 209.668,196.795 207.996 C 196.798 207.432,197.148 206.775,197.595 206.496 C 198.068 206.201,198.492 205.363,198.641 204.434 C 198.811 203.369,199.132 202.807,199.646 202.672 C 200.434 202.466,200.751 200.264,200.055 199.834 C 199.752 199.647,177.662 199.312,160.100 199.229 L 154.000 199.200 154.000 177.209 L 154.000 155.218 153.000 154.563 C 152.108 153.979,152.000 153.635,152.000 151.378 C 152.000 149.986,151.849 148.754,151.665 148.640 C 151.481 148.526,151.208 141.910,151.059 133.938 C 150.756 117.705,150.450 116.007,148.229 118.228 M345.300 124.665 C 345.025 124.776,344.800 125.044,344.800 125.261 C 344.800 125.824,346.504 125.500,346.702 124.900 C 346.868 124.397,346.229 124.290,345.300 124.665 M346.800 127.550 C 346.800 127.931,347.134 128.255,347.561 128.287 C 348.048 128.324,348.287 128.115,348.227 127.705 C 348.098 126.827,346.800 126.686,346.800 127.550 M349.443 131.033 C 349.047 132.065,349.159 132.400,349.900 132.394 C 350.498 132.389,350.513 132.331,350.000 132.000 C 349.522 131.691,349.603 131.605,350.400 131.575 C 350.950 131.554,351.174 131.446,350.898 131.334 C 350.621 131.223,350.497 130.967,350.621 130.766 C 350.745 130.565,350.586 130.400,350.266 130.400 C 349.947 130.400,349.576 130.685,349.443 131.033 M350.854 132.900 C 350.825 133.505,350.945 134.000,351.123 134.000 C 351.301 134.000,351.408 134.540,351.363 135.200 C 351.306 136.023,351.463 136.400,351.863 136.400 C 352.185 136.400,352.337 136.222,352.203 136.005 C 352.063 135.778,352.223 135.711,352.579 135.847 C 353.590 136.235,353.311 134.965,352.229 134.256 C 351.695 133.906,351.180 133.210,351.084 132.710 C 350.932 131.918,350.902 131.942,350.854 132.900 M355.275 144.103 C 355.374 145.127,355.589 145.410,356.300 145.445 C 357.282 145.495,357.409 145.139,356.811 144.021 C 356.059 142.615,355.136 142.664,355.275 144.103 M40.976 150.558 C 41.003 151.328,41.183 152.102,41.376 152.279 C 41.575 152.460,41.600 152.338,41.434 152.000 C 41.258 151.639,41.369 151.678,41.714 152.100 C 42.555 153.125,42.800 152.967,42.800 151.400 C 42.800 150.146,42.623 149.917,41.745 150.034 C 41.604 150.053,41.363 149.864,41.208 149.614 C 41.054 149.363,40.949 149.789,40.976 150.558 M357.247 152.426 C 357.208 153.732,357.346 154.800,357.555 154.800 C 357.764 154.800,358.264 154.924,358.667 155.075 C 359.336 155.326,359.347 155.284,358.800 154.598 C 358.451 154.161,358.409 153.972,358.700 154.147 C 359.711 154.754,359.276 151.474,358.247 150.726 L 357.318 150.052 357.247 152.426 M43.242 159.749 C 42.668 160.440,42.973 161.266,44.050 161.938 C 44.508 162.225,44.764 162.266,44.618 162.030 C 44.472 161.793,44.527 161.600,44.739 161.600 C 44.951 161.600,45.031 161.240,44.916 160.800 C 44.801 160.360,44.537 160.000,44.330 160.000 C 44.122 160.000,44.081 160.208,44.238 160.462 C 44.411 160.741,44.348 160.815,44.079 160.649 C 43.835 160.498,43.736 160.110,43.860 159.787 C 44.144 159.049,43.839 159.030,43.242 159.749 M45.594 164.500 C 45.589 165.228,45.514 165.285,45.200 164.800 C 44.898 164.332,44.811 164.443,44.806 165.300 C 44.803 165.905,44.991 166.400,45.224 166.400 C 45.457 166.400,45.535 166.581,45.398 166.803 C 45.120 167.253,46.106 168.400,46.771 168.400 C 47.554 168.400,47.262 165.262,46.400 164.400 L 45.600 163.600 45.594 164.500 M47.082 171.731 C 46.804 172.456,47.852 174.000,48.623 174.000 C 48.997 174.000,49.200 173.579,49.200 172.800 C 49.200 172.140,49.035 171.600,48.833 171.600 C 48.631 171.600,48.204 171.500,47.884 171.377 C 47.565 171.254,47.204 171.414,47.082 171.731 M49.387 174.306 C 48.909 174.646,48.863 175.427,49.300 175.767 C 49.465 175.895,49.516 175.886,49.414 175.747 C 49.312 175.608,49.408 175.158,49.628 174.747 C 50.063 173.935,50.019 173.856,49.387 174.306 M49.717 177.238 C 50.209 178.027,51.200 178.285,51.200 177.624 C 51.200 177.203,50.453 176.661,49.721 176.550 C 49.349 176.493,49.348 176.649,49.717 177.238 M358.800 178.363 C 358.800 178.562,358.462 178.637,358.049 178.529 C 357.373 178.352,357.303 178.567,357.349 180.666 C 357.389 182.488,358.200 184.508,358.200 182.785 C 358.200 182.557,358.428 182.230,358.706 182.058 C 359.141 181.789,359.355 178.000,358.935 178.000 C 358.861 178.000,358.800 178.163,358.800 178.363 M51.260 180.373 C 51.347 181.841,52.286 182.781,52.977 182.090 C 53.383 181.683,53.208 179.768,52.720 179.280 C 51.744 178.304,51.164 178.738,51.260 180.373 M53.200 184.229 C 53.200 184.908,54.316 186.217,54.629 185.905 C 54.734 185.800,54.556 185.495,54.233 185.228 C 53.911 184.960,53.746 184.485,53.867 184.171 C 53.987 183.857,53.886 183.600,53.643 183.600 C 53.399 183.600,53.200 183.883,53.200 184.229 M355.408 188.132 C 354.966 189.578,354.939 190.783,355.355 190.447 C 355.600 190.248,356.160 189.996,356.600 189.885 C 357.336 189.701,357.321 189.660,356.421 189.375 C 355.584 189.110,355.545 189.030,356.151 188.817 C 356.541 188.681,356.891 188.413,356.930 188.223 C 357.038 187.689,355.570 187.601,355.408 188.132 M57.246 188.324 C 57.221 188.612,56.997 188.722,56.748 188.568 C 56.500 188.414,56.377 188.449,56.477 188.644 C 56.576 188.840,56.981 189.750,57.376 190.666 C 58.383 193.000,59.600 193.272,59.600 191.163 C 59.600 190.126,59.432 189.634,59.100 189.700 C 58.825 189.755,58.626 189.479,58.658 189.086 C 58.702 188.540,58.592 188.475,58.191 188.807 C 57.795 189.136,57.621 189.066,57.480 188.521 C 57.377 188.125,57.272 188.036,57.246 188.324 M354.159 193.714 C 353.696 193.981,353.404 194.450,353.511 194.756 C 353.628 195.094,353.527 195.202,353.252 195.032 C 353.003 194.878,352.800 194.943,352.800 195.176 C 352.800 195.787,353.421 195.697,353.996 195.004 C 354.268 194.677,354.612 194.484,354.760 194.575 C 354.908 194.666,355.029 194.394,355.029 193.971 C 355.029 193.547,355.022 193.206,355.014 193.214 C 355.006 193.222,354.621 193.447,354.159 193.714 M62.240 197.039 C 62.124 197.342,62.233 197.548,62.482 197.495 C 63.018 197.383,63.986 199.081,63.994 200.149 C 63.999 200.802,64.087 200.828,64.677 200.349 C 65.161 199.956,65.267 199.945,65.047 200.310 C 64.854 200.631,64.936 200.779,65.270 200.710 C 65.594 200.643,65.768 200.924,65.716 201.434 C 65.657 202.025,66.017 202.451,66.956 202.899 L 68.280 203.530 68.240 202.265 C 68.209 201.271,68.019 200.991,67.354 200.957 C 66.113 200.894,65.630 200.481,65.796 199.621 C 66.092 198.084,62.766 195.669,62.240 197.039 M351.067 196.667 C 350.920 196.813,350.800 197.269,350.800 197.679 C 350.800 198.089,350.530 198.529,350.200 198.655 C 349.870 198.782,349.600 199.057,349.600 199.266 C 349.600 199.476,349.808 199.519,350.062 199.362 C 350.348 199.185,350.415 199.252,350.238 199.538 C 350.081 199.792,349.716 200.000,349.427 200.000 C 349.089 200.000,348.833 200.714,348.709 202.009 C 348.494 204.248,348.141 204.869,347.584 203.988 C 347.258 203.473,347.204 203.475,347.144 204.000 C 346.903 206.108,347.003 206.699,347.586 206.614 C 347.924 206.564,348.200 206.331,348.200 206.095 C 348.200 205.860,348.335 205.532,348.500 205.367 C 348.665 205.202,348.800 204.666,348.800 204.177 C 348.800 203.553,349.110 203.209,349.836 203.027 C 350.528 202.853,350.798 202.572,350.649 202.183 C 350.526 201.862,350.599 201.600,350.813 201.600 C 351.026 201.600,351.200 201.193,351.200 200.695 C 351.200 200.196,351.649 199.453,352.200 199.039 C 353.528 198.042,353.569 196.400,352.267 196.400 C 351.753 196.400,351.213 196.520,351.067 196.667 M68.426 204.169 C 68.108 204.552,68.093 204.811,68.381 204.988 C 68.611 205.131,68.800 204.972,68.800 204.636 C 68.800 204.257,69.028 204.113,69.400 204.255 C 69.757 204.392,70.000 204.994,70.000 205.743 C 70.000 206.894,70.112 207.003,71.332 207.034 C 72.793 207.071,73.050 205.366,71.647 204.936 C 71.291 204.827,70.525 204.483,69.945 204.173 C 69.042 203.689,68.824 203.689,68.426 204.169 M345.258 207.249 C 344.663 207.474,344.399 207.820,344.541 208.190 C 344.664 208.511,344.601 208.876,344.400 209.000 C 344.199 209.124,344.137 209.492,344.262 209.817 C 344.430 210.254,344.302 210.337,343.775 210.135 C 343.230 209.926,343.119 210.013,343.307 210.503 C 343.488 210.974,343.355 211.107,342.809 211.002 C 341.285 210.708,340.400 211.238,340.400 212.444 C 340.400 213.421,340.536 213.570,341.300 213.427 C 341.795 213.335,342.354 213.246,342.543 213.230 C 342.731 213.213,342.783 212.933,342.658 212.606 C 342.440 212.040,343.821 210.923,344.500 211.115 C 344.665 211.162,344.779 211.065,344.753 210.900 C 344.568 209.731,344.886 209.200,345.773 209.200 C 346.572 209.200,346.726 209.022,346.639 208.199 C 346.501 206.903,346.385 206.823,345.258 207.249 M73.600 208.754 C 73.600 208.952,73.867 209.217,74.193 209.342 C 74.562 209.484,74.687 209.828,74.524 210.254 C 74.321 210.783,74.418 210.879,74.951 210.674 C 75.413 210.497,75.548 210.561,75.359 210.867 C 75.156 211.195,75.459 211.248,76.424 211.055 C 77.706 210.799,77.734 210.817,76.986 211.422 C 76.554 211.773,76.456 211.926,76.768 211.764 C 77.188 211.546,77.267 211.648,77.073 212.155 C 76.928 212.533,76.967 212.744,77.159 212.625 C 77.352 212.506,77.732 212.677,78.004 213.004 C 78.276 213.332,78.701 213.597,78.949 213.594 C 79.273 213.589,79.277 213.505,78.961 213.294 C 78.719 213.132,78.494 212.685,78.461 212.300 C 78.322 210.699,78.232 210.488,77.491 210.025 C 77.065 209.759,76.824 209.715,76.956 209.929 C 77.088 210.142,76.936 210.416,76.618 210.538 C 76.234 210.685,76.115 210.566,76.262 210.183 C 76.393 209.841,76.181 209.512,75.742 209.374 C 75.334 209.246,74.685 208.973,74.300 208.767 C 73.894 208.551,73.600 208.545,73.600 208.754 M335.953 216.273 C 335.927 216.893,335.931 217.548,335.963 217.730 C 335.994 217.911,335.848 217.953,335.637 217.823 C 335.427 217.693,335.017 217.922,334.727 218.332 C 334.437 218.743,333.525 219.204,332.700 219.357 C 331.782 219.528,331.200 219.862,331.200 220.218 C 331.200 220.538,331.032 220.800,330.827 220.800 C 330.622 220.800,330.339 221.163,330.198 221.606 C 330.057 222.049,329.794 222.320,329.613 222.208 C 329.432 222.096,329.181 222.271,329.056 222.597 C 328.925 222.939,329.035 223.150,329.314 223.095 C 329.581 223.043,329.742 223.265,329.670 223.589 C 329.568 224.053,329.702 224.032,330.303 223.488 C 330.722 223.109,331.214 222.934,331.397 223.099 C 331.579 223.265,331.617 223.204,331.480 222.965 C 331.343 222.723,331.939 222.132,332.816 221.639 C 333.687 221.149,334.400 220.490,334.400 220.174 C 334.400 219.858,334.580 219.578,334.800 219.550 C 335.020 219.523,335.425 219.478,335.700 219.450 C 335.975 219.423,336.258 218.995,336.328 218.500 C 336.421 217.841,336.723 217.600,337.454 217.600 C 338.992 217.600,338.665 215.453,337.100 215.273 C 336.139 215.163,335.994 215.289,335.953 216.273 M325.629 223.784 C 325.159 224.036,324.887 224.353,325.023 224.490 C 325.160 224.627,324.171 225.047,322.825 225.425 C 321.479 225.803,320.473 226.206,320.588 226.321 C 320.703 226.437,320.213 227.064,319.499 227.716 C 318.586 228.549,318.362 228.960,318.745 229.099 C 319.206 229.266,319.206 229.351,318.745 229.642 C 318.319 229.912,318.313 229.989,318.719 229.994 C 319.005 229.997,319.635 229.553,320.119 229.006 C 320.718 228.331,321.480 227.984,322.500 227.925 C 323.325 227.876,324.000 227.680,324.000 227.490 C 324.000 226.758,325.168 226.027,326.477 225.939 C 327.475 225.872,327.856 225.651,327.896 225.115 C 327.930 224.671,327.764 224.477,327.476 224.621 C 327.214 224.752,327.320 224.598,327.710 224.278 C 328.663 223.498,326.932 223.087,325.629 223.784 M77.004 229.193 C 76.866 229.417,76.898 229.603,77.076 229.606 C 77.254 229.609,77.132 229.782,76.805 229.988 C 76.337 230.284,76.402 230.350,77.105 230.297 C 77.597 230.260,78.000 230.009,78.000 229.738 C 78.000 229.068,77.314 228.693,77.004 229.193 M315.400 229.978 C 314.960 230.155,314.456 230.216,314.281 230.115 C 313.609 229.725,312.567 230.408,313.211 230.815 C 313.536 231.021,313.595 231.191,313.343 231.194 C 313.091 231.197,312.784 231.464,312.661 231.786 C 312.481 232.255,312.693 232.323,313.718 232.124 C 315.028 231.869,315.702 231.289,315.350 230.719 C 315.165 230.420,315.785 230.233,316.530 230.363 C 316.711 230.394,316.745 230.235,316.606 230.010 C 316.467 229.784,316.318 229.613,316.276 229.628 C 316.234 229.644,315.840 229.801,315.400 229.978 M306.662 231.471 C 306.507 231.627,305.993 231.813,305.521 231.885 C 305.049 231.957,304.452 232.191,304.195 232.404 C 303.937 232.618,303.579 232.660,303.399 232.497 C 303.219 232.333,303.203 232.428,303.364 232.707 C 303.524 232.985,303.793 233.128,303.961 233.024 C 304.129 232.920,304.267 233.067,304.267 233.349 C 304.267 233.684,303.905 233.798,303.233 233.677 C 302.650 233.572,302.343 233.643,302.530 233.842 C 303.115 234.465,306.332 234.411,306.975 233.768 C 307.303 233.440,307.713 233.160,307.886 233.146 C 308.059 233.132,308.155 232.958,308.100 232.760 C 307.990 232.364,308.485 232.269,310.000 232.395 C 310.550 232.440,310.877 232.352,310.727 232.199 C 310.576 232.046,309.766 231.920,308.927 231.920 C 308.087 231.921,307.298 231.756,307.173 231.554 C 307.048 231.353,306.818 231.315,306.662 231.471 M178.000 237.165 C 178.000 237.623,178.245 237.893,178.611 237.840 C 178.947 237.790,179.202 237.601,179.177 237.420 C 179.152 237.238,179.372 236.937,179.666 236.751 C 180.033 236.518,179.856 236.410,179.100 236.406 C 178.282 236.402,178.000 236.596,178.000 237.165 M167.696 253.688 C 167.899 254.296,169.067 254.422,169.067 253.835 C 169.067 253.574,168.725 253.334,168.308 253.303 C 167.890 253.272,167.615 253.445,167.696 253.688 M157.200 270.376 C 157.200 271.437,157.683 271.643,158.387 270.882 C 158.910 270.316,158.889 270.278,158.187 270.525 C 157.410 270.798,157.410 270.794,158.176 270.201 C 158.936 269.613,158.934 269.600,158.076 269.600 C 157.476 269.600,157.200 269.844,157.200 270.376 M146.913 287.161 C 146.876 287.648,147.085 287.887,147.495 287.827 C 148.373 287.698,148.514 286.400,147.650 286.400 C 147.269 286.400,146.945 286.734,146.913 287.161 M136.400 303.776 C 136.400 304.623,137.077 304.897,137.358 304.165 C 137.700 303.273,137.673 303.200,137.000 303.200 C 136.670 303.200,136.400 303.459,136.400 303.776 M126.006 320.700 C 126.010 321.456,126.118 321.633,126.351 321.266 C 126.537 320.972,126.838 320.752,127.020 320.777 C 127.201 320.802,127.390 320.547,127.440 320.211 C 127.493 319.845,127.223 319.600,126.765 319.600 C 126.196 319.600,126.002 319.882,126.006 320.700 " stroke="none" fill="#c4c4c4" fill-rule="evenodd"></path></g></svg>